G04 #@! TF.GenerationSoftware,KiCad,Pcbnew,(5.1.8)-1*
G04 #@! TF.CreationDate,2020-12-05T00:35:16+00:00*
G04 #@! TF.ProjectId,Great Wave Refurbishing GBA Battery Board,47726561-7420-4576-9176-652052656675,rev?*
G04 #@! TF.SameCoordinates,Original*
G04 #@! TF.FileFunction,Legend,Top*
G04 #@! TF.FilePolarity,Positive*
%FSLAX46Y46*%
G04 Gerber Fmt 4.6, Leading zero omitted, Abs format (unit mm)*
G04 Created by KiCad (PCBNEW (5.1.8)-1) date 2020-12-05 00:35:16*
%MOMM*%
%LPD*%
G01*
G04 APERTURE LIST*
%ADD10C,0.200000*%
%ADD11C,0.125000*%
%ADD12C,0.150000*%
%ADD13C,0.137500*%
%ADD14C,0.300000*%
%ADD15C,0.120000*%
%ADD16C,0.010000*%
%ADD17C,0.100000*%
G04 APERTURE END LIST*
D10*
X34688095Y-26511904D02*
X34688095Y-25711904D01*
X34878571Y-25711904D01*
X34992857Y-25750000D01*
X35069047Y-25826190D01*
X35107142Y-25902380D01*
X35145238Y-26054761D01*
X35145238Y-26169047D01*
X35107142Y-26321428D01*
X35069047Y-26397619D01*
X34992857Y-26473809D01*
X34878571Y-26511904D01*
X34688095Y-26511904D01*
X35602380Y-26511904D02*
X35526190Y-26473809D01*
X35488095Y-26435714D01*
X35450000Y-26359523D01*
X35450000Y-26130952D01*
X35488095Y-26054761D01*
X35526190Y-26016666D01*
X35602380Y-25978571D01*
X35716666Y-25978571D01*
X35792857Y-26016666D01*
X35830952Y-26054761D01*
X35869047Y-26130952D01*
X35869047Y-26359523D01*
X35830952Y-26435714D01*
X35792857Y-26473809D01*
X35716666Y-26511904D01*
X35602380Y-26511904D01*
X36211904Y-25978571D02*
X36211904Y-26511904D01*
X36211904Y-26054761D02*
X36250000Y-26016666D01*
X36326190Y-25978571D01*
X36440476Y-25978571D01*
X36516666Y-26016666D01*
X36554761Y-26092857D01*
X36554761Y-26511904D01*
X36973809Y-25711904D02*
X36897619Y-25864285D01*
X37202380Y-25978571D02*
X37507142Y-25978571D01*
X37316666Y-25711904D02*
X37316666Y-26397619D01*
X37354761Y-26473809D01*
X37430952Y-26511904D01*
X37507142Y-26511904D01*
X38726190Y-26473809D02*
X38650000Y-26511904D01*
X38497619Y-26511904D01*
X38421428Y-26473809D01*
X38383333Y-26435714D01*
X38345238Y-26359523D01*
X38345238Y-26130952D01*
X38383333Y-26054761D01*
X38421428Y-26016666D01*
X38497619Y-25978571D01*
X38650000Y-25978571D01*
X38726190Y-26016666D01*
X39069047Y-26511904D02*
X39069047Y-25711904D01*
X39411904Y-26511904D02*
X39411904Y-26092857D01*
X39373809Y-26016666D01*
X39297619Y-25978571D01*
X39183333Y-25978571D01*
X39107142Y-26016666D01*
X39069047Y-26054761D01*
X40135714Y-26511904D02*
X40135714Y-26092857D01*
X40097619Y-26016666D01*
X40021428Y-25978571D01*
X39869047Y-25978571D01*
X39792857Y-26016666D01*
X40135714Y-26473809D02*
X40059523Y-26511904D01*
X39869047Y-26511904D01*
X39792857Y-26473809D01*
X39754761Y-26397619D01*
X39754761Y-26321428D01*
X39792857Y-26245238D01*
X39869047Y-26207142D01*
X40059523Y-26207142D01*
X40135714Y-26169047D01*
X40516666Y-26511904D02*
X40516666Y-25978571D01*
X40516666Y-26130952D02*
X40554761Y-26054761D01*
X40592857Y-26016666D01*
X40669047Y-25978571D01*
X40745238Y-25978571D01*
X41354761Y-25978571D02*
X41354761Y-26626190D01*
X41316666Y-26702380D01*
X41278571Y-26740476D01*
X41202380Y-26778571D01*
X41088095Y-26778571D01*
X41011904Y-26740476D01*
X41354761Y-26473809D02*
X41278571Y-26511904D01*
X41126190Y-26511904D01*
X41049999Y-26473809D01*
X41011904Y-26435714D01*
X40973809Y-26359523D01*
X40973809Y-26130952D01*
X41011904Y-26054761D01*
X41049999Y-26016666D01*
X41126190Y-25978571D01*
X41278571Y-25978571D01*
X41354761Y-26016666D01*
X42040476Y-26473809D02*
X41964285Y-26511904D01*
X41811904Y-26511904D01*
X41735714Y-26473809D01*
X41697619Y-26397619D01*
X41697619Y-26092857D01*
X41735714Y-26016666D01*
X41811904Y-25978571D01*
X41964285Y-25978571D01*
X42040476Y-26016666D01*
X42078571Y-26092857D01*
X42078571Y-26169047D01*
X41697619Y-26245238D01*
X42916666Y-25978571D02*
X43221428Y-25978571D01*
X43030952Y-25711904D02*
X43030952Y-26397619D01*
X43069047Y-26473809D01*
X43145238Y-26511904D01*
X43221428Y-26511904D01*
X43488095Y-26511904D02*
X43488095Y-25711904D01*
X43830952Y-26511904D02*
X43830952Y-26092857D01*
X43792857Y-26016666D01*
X43716666Y-25978571D01*
X43602380Y-25978571D01*
X43526190Y-26016666D01*
X43488095Y-26054761D01*
X44211904Y-26511904D02*
X44211904Y-25978571D01*
X44211904Y-25711904D02*
X44173809Y-25750000D01*
X44211904Y-25788095D01*
X44250000Y-25750000D01*
X44211904Y-25711904D01*
X44211904Y-25788095D01*
X44554761Y-26473809D02*
X44630952Y-26511904D01*
X44783333Y-26511904D01*
X44859523Y-26473809D01*
X44897619Y-26397619D01*
X44897619Y-26359523D01*
X44859523Y-26283333D01*
X44783333Y-26245238D01*
X44669047Y-26245238D01*
X44592857Y-26207142D01*
X44554761Y-26130952D01*
X44554761Y-26092857D01*
X44592857Y-26016666D01*
X44669047Y-25978571D01*
X44783333Y-25978571D01*
X44859523Y-26016666D01*
X46192857Y-26511904D02*
X46192857Y-25711904D01*
X46192857Y-26473809D02*
X46116666Y-26511904D01*
X45964285Y-26511904D01*
X45888095Y-26473809D01*
X45850000Y-26435714D01*
X45811904Y-26359523D01*
X45811904Y-26130952D01*
X45850000Y-26054761D01*
X45888095Y-26016666D01*
X45964285Y-25978571D01*
X46116666Y-25978571D01*
X46192857Y-26016666D01*
X46878571Y-26473809D02*
X46802380Y-26511904D01*
X46650000Y-26511904D01*
X46573809Y-26473809D01*
X46535714Y-26397619D01*
X46535714Y-26092857D01*
X46573809Y-26016666D01*
X46650000Y-25978571D01*
X46802380Y-25978571D01*
X46878571Y-26016666D01*
X46916666Y-26092857D01*
X46916666Y-26169047D01*
X46535714Y-26245238D01*
X47183333Y-25978571D02*
X47373809Y-26511904D01*
X47564285Y-25978571D01*
X47869047Y-26511904D02*
X47869047Y-25978571D01*
X47869047Y-25711904D02*
X47830952Y-25750000D01*
X47869047Y-25788095D01*
X47907142Y-25750000D01*
X47869047Y-25711904D01*
X47869047Y-25788095D01*
X48592857Y-26473809D02*
X48516666Y-26511904D01*
X48364285Y-26511904D01*
X48288095Y-26473809D01*
X48250000Y-26435714D01*
X48211904Y-26359523D01*
X48211904Y-26130952D01*
X48250000Y-26054761D01*
X48288095Y-26016666D01*
X48364285Y-25978571D01*
X48516666Y-25978571D01*
X48592857Y-26016666D01*
X49240476Y-26473809D02*
X49164285Y-26511904D01*
X49011904Y-26511904D01*
X48935714Y-26473809D01*
X48897619Y-26397619D01*
X48897619Y-26092857D01*
X48935714Y-26016666D01*
X49011904Y-25978571D01*
X49164285Y-25978571D01*
X49240476Y-26016666D01*
X49278571Y-26092857D01*
X49278571Y-26169047D01*
X48897619Y-26245238D01*
X50154761Y-25978571D02*
X50307142Y-26511904D01*
X50459523Y-26130952D01*
X50611904Y-26511904D01*
X50764285Y-25978571D01*
X51069047Y-26511904D02*
X51069047Y-25711904D01*
X51411904Y-26511904D02*
X51411904Y-26092857D01*
X51373809Y-26016666D01*
X51297619Y-25978571D01*
X51183333Y-25978571D01*
X51107142Y-26016666D01*
X51069047Y-26054761D01*
X51792857Y-26511904D02*
X51792857Y-25978571D01*
X51792857Y-25711904D02*
X51754761Y-25750000D01*
X51792857Y-25788095D01*
X51830952Y-25750000D01*
X51792857Y-25711904D01*
X51792857Y-25788095D01*
X52288095Y-26511904D02*
X52211904Y-26473809D01*
X52173809Y-26397619D01*
X52173809Y-25711904D01*
X52897619Y-26473809D02*
X52821428Y-26511904D01*
X52669047Y-26511904D01*
X52592857Y-26473809D01*
X52554761Y-26397619D01*
X52554761Y-26092857D01*
X52592857Y-26016666D01*
X52669047Y-25978571D01*
X52821428Y-25978571D01*
X52897619Y-26016666D01*
X52935714Y-26092857D01*
X52935714Y-26169047D01*
X52554761Y-26245238D01*
X53888095Y-26511904D02*
X53888095Y-25978571D01*
X53888095Y-25711904D02*
X53850000Y-25750000D01*
X53888095Y-25788095D01*
X53926190Y-25750000D01*
X53888095Y-25711904D01*
X53888095Y-25788095D01*
X54154761Y-25978571D02*
X54459523Y-25978571D01*
X54269047Y-25711904D02*
X54269047Y-26397619D01*
X54307142Y-26473809D01*
X54383333Y-26511904D01*
X54459523Y-26511904D01*
X54764285Y-25711904D02*
X54688095Y-25864285D01*
X55069047Y-26473809D02*
X55145238Y-26511904D01*
X55297619Y-26511904D01*
X55373809Y-26473809D01*
X55411904Y-26397619D01*
X55411904Y-26359523D01*
X55373809Y-26283333D01*
X55297619Y-26245238D01*
X55183333Y-26245238D01*
X55107142Y-26207142D01*
X55069047Y-26130952D01*
X55069047Y-26092857D01*
X55107142Y-26016666D01*
X55183333Y-25978571D01*
X55297619Y-25978571D01*
X55373809Y-26016666D01*
X56478571Y-26511904D02*
X56402380Y-26473809D01*
X56364285Y-26435714D01*
X56326190Y-26359523D01*
X56326190Y-26130952D01*
X56364285Y-26054761D01*
X56402380Y-26016666D01*
X56478571Y-25978571D01*
X56592857Y-25978571D01*
X56669047Y-26016666D01*
X56707142Y-26054761D01*
X56745238Y-26130952D01*
X56745238Y-26359523D01*
X56707142Y-26435714D01*
X56669047Y-26473809D01*
X56592857Y-26511904D01*
X56478571Y-26511904D01*
X57088095Y-25978571D02*
X57088095Y-26511904D01*
X57088095Y-26054761D02*
X57126190Y-26016666D01*
X57202380Y-25978571D01*
X57316666Y-25978571D01*
X57392857Y-26016666D01*
X57430952Y-26092857D01*
X57430952Y-26511904D01*
X57811904Y-26435714D02*
X57850000Y-26473809D01*
X57811904Y-26511904D01*
X57773809Y-26473809D01*
X57811904Y-26435714D01*
X57811904Y-26511904D01*
X57811904Y-26207142D02*
X57773809Y-25750000D01*
X57811904Y-25711904D01*
X57850000Y-25750000D01*
X57811904Y-26207142D01*
X57811904Y-25711904D01*
X37640476Y-27911904D02*
X37640476Y-27111904D01*
X37907142Y-27378571D02*
X38211904Y-27378571D01*
X38021428Y-27111904D02*
X38021428Y-27797619D01*
X38059523Y-27873809D01*
X38135714Y-27911904D01*
X38211904Y-27911904D01*
X39430952Y-27873809D02*
X39354761Y-27911904D01*
X39202380Y-27911904D01*
X39126190Y-27873809D01*
X39088095Y-27835714D01*
X39050000Y-27759523D01*
X39050000Y-27530952D01*
X39088095Y-27454761D01*
X39126190Y-27416666D01*
X39202380Y-27378571D01*
X39354761Y-27378571D01*
X39430952Y-27416666D01*
X39888095Y-27911904D02*
X39811904Y-27873809D01*
X39773809Y-27835714D01*
X39735714Y-27759523D01*
X39735714Y-27530952D01*
X39773809Y-27454761D01*
X39811904Y-27416666D01*
X39888095Y-27378571D01*
X40002380Y-27378571D01*
X40078571Y-27416666D01*
X40116666Y-27454761D01*
X40154761Y-27530952D01*
X40154761Y-27759523D01*
X40116666Y-27835714D01*
X40078571Y-27873809D01*
X40002380Y-27911904D01*
X39888095Y-27911904D01*
X40840476Y-27378571D02*
X40840476Y-27911904D01*
X40497619Y-27378571D02*
X40497619Y-27797619D01*
X40535714Y-27873809D01*
X40611904Y-27911904D01*
X40726190Y-27911904D01*
X40802380Y-27873809D01*
X40840476Y-27835714D01*
X41335714Y-27911904D02*
X41259523Y-27873809D01*
X41221428Y-27797619D01*
X41221428Y-27111904D01*
X41983333Y-27911904D02*
X41983333Y-27111904D01*
X41983333Y-27873809D02*
X41907142Y-27911904D01*
X41754761Y-27911904D01*
X41678571Y-27873809D01*
X41640476Y-27835714D01*
X41602380Y-27759523D01*
X41602380Y-27530952D01*
X41640476Y-27454761D01*
X41678571Y-27416666D01*
X41754761Y-27378571D01*
X41907142Y-27378571D01*
X41983333Y-27416666D01*
X43316666Y-27911904D02*
X43316666Y-27111904D01*
X43316666Y-27873809D02*
X43240476Y-27911904D01*
X43088095Y-27911904D01*
X43011904Y-27873809D01*
X42973809Y-27835714D01*
X42935714Y-27759523D01*
X42935714Y-27530952D01*
X42973809Y-27454761D01*
X43011904Y-27416666D01*
X43088095Y-27378571D01*
X43240476Y-27378571D01*
X43316666Y-27416666D01*
X44040476Y-27911904D02*
X44040476Y-27492857D01*
X44002380Y-27416666D01*
X43926190Y-27378571D01*
X43773809Y-27378571D01*
X43697619Y-27416666D01*
X44040476Y-27873809D02*
X43964285Y-27911904D01*
X43773809Y-27911904D01*
X43697619Y-27873809D01*
X43659523Y-27797619D01*
X43659523Y-27721428D01*
X43697619Y-27645238D01*
X43773809Y-27607142D01*
X43964285Y-27607142D01*
X44040476Y-27569047D01*
X44421428Y-27911904D02*
X44421428Y-27378571D01*
X44421428Y-27454761D02*
X44459523Y-27416666D01*
X44535714Y-27378571D01*
X44650000Y-27378571D01*
X44726190Y-27416666D01*
X44764285Y-27492857D01*
X44764285Y-27911904D01*
X44764285Y-27492857D02*
X44802380Y-27416666D01*
X44878571Y-27378571D01*
X44992857Y-27378571D01*
X45069047Y-27416666D01*
X45107142Y-27492857D01*
X45107142Y-27911904D01*
X45830952Y-27911904D02*
X45830952Y-27492857D01*
X45792857Y-27416666D01*
X45716666Y-27378571D01*
X45564285Y-27378571D01*
X45488095Y-27416666D01*
X45830952Y-27873809D02*
X45754761Y-27911904D01*
X45564285Y-27911904D01*
X45488095Y-27873809D01*
X45450000Y-27797619D01*
X45450000Y-27721428D01*
X45488095Y-27645238D01*
X45564285Y-27607142D01*
X45754761Y-27607142D01*
X45830952Y-27569047D01*
X46554761Y-27378571D02*
X46554761Y-28026190D01*
X46516666Y-28102380D01*
X46478571Y-28140476D01*
X46402380Y-28178571D01*
X46288095Y-28178571D01*
X46211904Y-28140476D01*
X46554761Y-27873809D02*
X46478571Y-27911904D01*
X46326190Y-27911904D01*
X46250000Y-27873809D01*
X46211904Y-27835714D01*
X46173809Y-27759523D01*
X46173809Y-27530952D01*
X46211904Y-27454761D01*
X46250000Y-27416666D01*
X46326190Y-27378571D01*
X46478571Y-27378571D01*
X46554761Y-27416666D01*
X47240476Y-27873809D02*
X47164285Y-27911904D01*
X47011904Y-27911904D01*
X46935714Y-27873809D01*
X46897619Y-27797619D01*
X46897619Y-27492857D01*
X46935714Y-27416666D01*
X47011904Y-27378571D01*
X47164285Y-27378571D01*
X47240476Y-27416666D01*
X47278571Y-27492857D01*
X47278571Y-27569047D01*
X46897619Y-27645238D01*
X48116666Y-27378571D02*
X48421428Y-27378571D01*
X48230952Y-27111904D02*
X48230952Y-27797619D01*
X48269047Y-27873809D01*
X48345238Y-27911904D01*
X48421428Y-27911904D01*
X48688095Y-27911904D02*
X48688095Y-27111904D01*
X49030952Y-27911904D02*
X49030952Y-27492857D01*
X48992857Y-27416666D01*
X48916666Y-27378571D01*
X48802380Y-27378571D01*
X48726190Y-27416666D01*
X48688095Y-27454761D01*
X49716666Y-27873809D02*
X49640476Y-27911904D01*
X49488095Y-27911904D01*
X49411904Y-27873809D01*
X49373809Y-27797619D01*
X49373809Y-27492857D01*
X49411904Y-27416666D01*
X49488095Y-27378571D01*
X49640476Y-27378571D01*
X49716666Y-27416666D01*
X49754761Y-27492857D01*
X49754761Y-27569047D01*
X49373809Y-27645238D01*
X50707142Y-27911904D02*
X50707142Y-27111904D01*
X50707142Y-27416666D02*
X50783333Y-27378571D01*
X50935714Y-27378571D01*
X51011904Y-27416666D01*
X51050000Y-27454761D01*
X51088095Y-27530952D01*
X51088095Y-27759523D01*
X51050000Y-27835714D01*
X51011904Y-27873809D01*
X50935714Y-27911904D01*
X50783333Y-27911904D01*
X50707142Y-27873809D01*
X51773809Y-27911904D02*
X51773809Y-27492857D01*
X51735714Y-27416666D01*
X51659523Y-27378571D01*
X51507142Y-27378571D01*
X51430952Y-27416666D01*
X51773809Y-27873809D02*
X51697619Y-27911904D01*
X51507142Y-27911904D01*
X51430952Y-27873809D01*
X51392857Y-27797619D01*
X51392857Y-27721428D01*
X51430952Y-27645238D01*
X51507142Y-27607142D01*
X51697619Y-27607142D01*
X51773809Y-27569047D01*
X52040476Y-27378571D02*
X52345238Y-27378571D01*
X52154761Y-27111904D02*
X52154761Y-27797619D01*
X52192857Y-27873809D01*
X52269047Y-27911904D01*
X52345238Y-27911904D01*
X52497619Y-27378571D02*
X52802380Y-27378571D01*
X52611904Y-27111904D02*
X52611904Y-27797619D01*
X52650000Y-27873809D01*
X52726190Y-27911904D01*
X52802380Y-27911904D01*
X53373809Y-27873809D02*
X53297619Y-27911904D01*
X53145238Y-27911904D01*
X53069047Y-27873809D01*
X53030952Y-27797619D01*
X53030952Y-27492857D01*
X53069047Y-27416666D01*
X53145238Y-27378571D01*
X53297619Y-27378571D01*
X53373809Y-27416666D01*
X53411904Y-27492857D01*
X53411904Y-27569047D01*
X53030952Y-27645238D01*
X53754761Y-27911904D02*
X53754761Y-27378571D01*
X53754761Y-27530952D02*
X53792857Y-27454761D01*
X53830952Y-27416666D01*
X53907142Y-27378571D01*
X53983333Y-27378571D01*
X54173809Y-27378571D02*
X54364285Y-27911904D01*
X54554761Y-27378571D02*
X54364285Y-27911904D01*
X54288095Y-28102380D01*
X54250000Y-28140476D01*
X54173809Y-28178571D01*
X54859523Y-27835714D02*
X54897619Y-27873809D01*
X54859523Y-27911904D01*
X54821428Y-27873809D01*
X54859523Y-27835714D01*
X54859523Y-27911904D01*
X54859523Y-27607142D02*
X54821428Y-27150000D01*
X54859523Y-27111904D01*
X54897619Y-27150000D01*
X54859523Y-27607142D01*
X54859523Y-27111904D01*
D11*
X34976488Y-23595833D02*
X35214583Y-23595833D01*
X34928869Y-23738690D02*
X35095535Y-23238690D01*
X35262202Y-23738690D01*
X35690773Y-23262500D02*
X35643154Y-23238690D01*
X35571726Y-23238690D01*
X35500297Y-23262500D01*
X35452678Y-23310119D01*
X35428869Y-23357738D01*
X35405059Y-23452976D01*
X35405059Y-23524404D01*
X35428869Y-23619642D01*
X35452678Y-23667261D01*
X35500297Y-23714880D01*
X35571726Y-23738690D01*
X35619345Y-23738690D01*
X35690773Y-23714880D01*
X35714583Y-23691071D01*
X35714583Y-23524404D01*
X35619345Y-23524404D01*
X36095535Y-23476785D02*
X36166964Y-23500595D01*
X36190773Y-23524404D01*
X36214583Y-23572023D01*
X36214583Y-23643452D01*
X36190773Y-23691071D01*
X36166964Y-23714880D01*
X36119345Y-23738690D01*
X35928869Y-23738690D01*
X35928869Y-23238690D01*
X36095535Y-23238690D01*
X36143154Y-23262500D01*
X36166964Y-23286309D01*
X36190773Y-23333928D01*
X36190773Y-23381547D01*
X36166964Y-23429166D01*
X36143154Y-23452976D01*
X36095535Y-23476785D01*
X35928869Y-23476785D01*
X36428869Y-23548214D02*
X36809821Y-23548214D01*
X37286011Y-23738690D02*
X37047916Y-23738690D01*
X37047916Y-23238690D01*
X37452678Y-23738690D02*
X37452678Y-23405357D01*
X37452678Y-23238690D02*
X37428869Y-23262500D01*
X37452678Y-23286309D01*
X37476488Y-23262500D01*
X37452678Y-23238690D01*
X37452678Y-23286309D01*
X37690773Y-23738690D02*
X37690773Y-23238690D01*
X37881250Y-23238690D01*
X37928869Y-23262500D01*
X37952678Y-23286309D01*
X37976488Y-23333928D01*
X37976488Y-23405357D01*
X37952678Y-23452976D01*
X37928869Y-23476785D01*
X37881250Y-23500595D01*
X37690773Y-23500595D01*
X38286011Y-23238690D02*
X38381250Y-23238690D01*
X38428869Y-23262500D01*
X38476488Y-23310119D01*
X38500297Y-23405357D01*
X38500297Y-23572023D01*
X38476488Y-23667261D01*
X38428869Y-23714880D01*
X38381250Y-23738690D01*
X38286011Y-23738690D01*
X38238392Y-23714880D01*
X38190773Y-23667261D01*
X38166964Y-23572023D01*
X38166964Y-23405357D01*
X38190773Y-23310119D01*
X38238392Y-23262500D01*
X38286011Y-23238690D01*
X38714583Y-23548214D02*
X39095535Y-23548214D01*
X39595535Y-23262500D02*
X39547916Y-23238690D01*
X39476488Y-23238690D01*
X39405059Y-23262500D01*
X39357440Y-23310119D01*
X39333630Y-23357738D01*
X39309821Y-23452976D01*
X39309821Y-23524404D01*
X39333630Y-23619642D01*
X39357440Y-23667261D01*
X39405059Y-23714880D01*
X39476488Y-23738690D01*
X39524107Y-23738690D01*
X39595535Y-23714880D01*
X39619345Y-23691071D01*
X39619345Y-23524404D01*
X39524107Y-23524404D01*
X39786011Y-23238690D02*
X39905059Y-23738690D01*
X40000297Y-23381547D01*
X40095535Y-23738690D01*
X40214583Y-23238690D01*
X40690773Y-23738690D02*
X40524107Y-23500595D01*
X40405059Y-23738690D02*
X40405059Y-23238690D01*
X40595535Y-23238690D01*
X40643154Y-23262500D01*
X40666964Y-23286309D01*
X40690773Y-23333928D01*
X40690773Y-23405357D01*
X40666964Y-23452976D01*
X40643154Y-23476785D01*
X40595535Y-23500595D01*
X40405059Y-23500595D01*
X41214583Y-23238690D02*
X41381250Y-23738690D01*
X41547916Y-23238690D01*
X41690773Y-23286309D02*
X41714583Y-23262500D01*
X41762202Y-23238690D01*
X41881250Y-23238690D01*
X41928869Y-23262500D01*
X41952678Y-23286309D01*
X41976488Y-23333928D01*
X41976488Y-23381547D01*
X41952678Y-23452976D01*
X41666964Y-23738690D01*
X41976488Y-23738690D01*
X42190773Y-23691071D02*
X42214583Y-23714880D01*
X42190773Y-23738690D01*
X42166964Y-23714880D01*
X42190773Y-23691071D01*
X42190773Y-23738690D01*
X42524107Y-23238690D02*
X42571726Y-23238690D01*
X42619345Y-23262500D01*
X42643154Y-23286309D01*
X42666964Y-23333928D01*
X42690773Y-23429166D01*
X42690773Y-23548214D01*
X42666964Y-23643452D01*
X42643154Y-23691071D01*
X42619345Y-23714880D01*
X42571726Y-23738690D01*
X42524107Y-23738690D01*
X42476488Y-23714880D01*
X42452678Y-23691071D01*
X42428869Y-23643452D01*
X42405059Y-23548214D01*
X42405059Y-23429166D01*
X42428869Y-23333928D01*
X42452678Y-23286309D01*
X42476488Y-23262500D01*
X42524107Y-23238690D01*
X43166964Y-23738690D02*
X42881250Y-23738690D01*
X43024107Y-23738690D02*
X43024107Y-23238690D01*
X42976488Y-23310119D01*
X42928869Y-23357738D01*
X42881250Y-23381547D01*
X35000297Y-24613690D02*
X35000297Y-24113690D01*
X35214583Y-24613690D02*
X35214583Y-24351785D01*
X35190773Y-24304166D01*
X35143154Y-24280357D01*
X35071726Y-24280357D01*
X35024107Y-24304166D01*
X35000297Y-24327976D01*
X35381250Y-24280357D02*
X35571726Y-24280357D01*
X35452678Y-24113690D02*
X35452678Y-24542261D01*
X35476488Y-24589880D01*
X35524107Y-24613690D01*
X35571726Y-24613690D01*
X35666964Y-24280357D02*
X35857440Y-24280357D01*
X35738392Y-24113690D02*
X35738392Y-24542261D01*
X35762202Y-24589880D01*
X35809821Y-24613690D01*
X35857440Y-24613690D01*
X36024107Y-24280357D02*
X36024107Y-24780357D01*
X36024107Y-24304166D02*
X36071726Y-24280357D01*
X36166964Y-24280357D01*
X36214583Y-24304166D01*
X36238392Y-24327976D01*
X36262202Y-24375595D01*
X36262202Y-24518452D01*
X36238392Y-24566071D01*
X36214583Y-24589880D01*
X36166964Y-24613690D01*
X36071726Y-24613690D01*
X36024107Y-24589880D01*
X36452678Y-24589880D02*
X36500297Y-24613690D01*
X36595535Y-24613690D01*
X36643154Y-24589880D01*
X36666964Y-24542261D01*
X36666964Y-24518452D01*
X36643154Y-24470833D01*
X36595535Y-24447023D01*
X36524107Y-24447023D01*
X36476488Y-24423214D01*
X36452678Y-24375595D01*
X36452678Y-24351785D01*
X36476488Y-24304166D01*
X36524107Y-24280357D01*
X36595535Y-24280357D01*
X36643154Y-24304166D01*
X36881250Y-24566071D02*
X36905059Y-24589880D01*
X36881250Y-24613690D01*
X36857440Y-24589880D01*
X36881250Y-24566071D01*
X36881250Y-24613690D01*
X36881250Y-24304166D02*
X36905059Y-24327976D01*
X36881250Y-24351785D01*
X36857440Y-24327976D01*
X36881250Y-24304166D01*
X36881250Y-24351785D01*
X37476488Y-24089880D02*
X37047916Y-24732738D01*
X38000297Y-24089880D02*
X37571726Y-24732738D01*
X38381250Y-24280357D02*
X38381250Y-24685119D01*
X38357440Y-24732738D01*
X38333630Y-24756547D01*
X38286011Y-24780357D01*
X38214583Y-24780357D01*
X38166964Y-24756547D01*
X38381250Y-24589880D02*
X38333630Y-24613690D01*
X38238392Y-24613690D01*
X38190773Y-24589880D01*
X38166964Y-24566071D01*
X38143154Y-24518452D01*
X38143154Y-24375595D01*
X38166964Y-24327976D01*
X38190773Y-24304166D01*
X38238392Y-24280357D01*
X38333630Y-24280357D01*
X38381250Y-24304166D01*
X38619345Y-24613690D02*
X38619345Y-24280357D01*
X38619345Y-24113690D02*
X38595535Y-24137500D01*
X38619345Y-24161309D01*
X38643154Y-24137500D01*
X38619345Y-24113690D01*
X38619345Y-24161309D01*
X38786011Y-24280357D02*
X38976488Y-24280357D01*
X38857440Y-24113690D02*
X38857440Y-24542261D01*
X38881250Y-24589880D01*
X38928869Y-24613690D01*
X38976488Y-24613690D01*
X39143154Y-24613690D02*
X39143154Y-24113690D01*
X39357440Y-24613690D02*
X39357440Y-24351785D01*
X39333630Y-24304166D01*
X39286011Y-24280357D01*
X39214583Y-24280357D01*
X39166964Y-24304166D01*
X39143154Y-24327976D01*
X39809821Y-24280357D02*
X39809821Y-24613690D01*
X39595535Y-24280357D02*
X39595535Y-24542261D01*
X39619345Y-24589880D01*
X39666964Y-24613690D01*
X39738392Y-24613690D01*
X39786011Y-24589880D01*
X39809821Y-24566071D01*
X40047916Y-24613690D02*
X40047916Y-24113690D01*
X40047916Y-24304166D02*
X40095535Y-24280357D01*
X40190773Y-24280357D01*
X40238392Y-24304166D01*
X40262202Y-24327976D01*
X40286011Y-24375595D01*
X40286011Y-24518452D01*
X40262202Y-24566071D01*
X40238392Y-24589880D01*
X40190773Y-24613690D01*
X40095535Y-24613690D01*
X40047916Y-24589880D01*
X40500297Y-24566071D02*
X40524107Y-24589880D01*
X40500297Y-24613690D01*
X40476488Y-24589880D01*
X40500297Y-24566071D01*
X40500297Y-24613690D01*
X40952678Y-24589880D02*
X40905059Y-24613690D01*
X40809821Y-24613690D01*
X40762202Y-24589880D01*
X40738392Y-24566071D01*
X40714583Y-24518452D01*
X40714583Y-24375595D01*
X40738392Y-24327976D01*
X40762202Y-24304166D01*
X40809821Y-24280357D01*
X40905059Y-24280357D01*
X40952678Y-24304166D01*
X41238392Y-24613690D02*
X41190773Y-24589880D01*
X41166964Y-24566071D01*
X41143154Y-24518452D01*
X41143154Y-24375595D01*
X41166964Y-24327976D01*
X41190773Y-24304166D01*
X41238392Y-24280357D01*
X41309821Y-24280357D01*
X41357440Y-24304166D01*
X41381250Y-24327976D01*
X41405059Y-24375595D01*
X41405059Y-24518452D01*
X41381250Y-24566071D01*
X41357440Y-24589880D01*
X41309821Y-24613690D01*
X41238392Y-24613690D01*
X41619345Y-24613690D02*
X41619345Y-24280357D01*
X41619345Y-24327976D02*
X41643154Y-24304166D01*
X41690773Y-24280357D01*
X41762202Y-24280357D01*
X41809821Y-24304166D01*
X41833630Y-24351785D01*
X41833630Y-24613690D01*
X41833630Y-24351785D02*
X41857440Y-24304166D01*
X41905059Y-24280357D01*
X41976488Y-24280357D01*
X42024107Y-24304166D01*
X42047916Y-24351785D01*
X42047916Y-24613690D01*
X42643154Y-24089880D02*
X42214583Y-24732738D01*
X42738392Y-24113690D02*
X43024107Y-24113690D01*
X42881250Y-24613690D02*
X42881250Y-24113690D01*
X43262202Y-24613690D02*
X43214583Y-24589880D01*
X43190773Y-24566071D01*
X43166964Y-24518452D01*
X43166964Y-24375595D01*
X43190773Y-24327976D01*
X43214583Y-24304166D01*
X43262202Y-24280357D01*
X43333630Y-24280357D01*
X43381250Y-24304166D01*
X43405059Y-24327976D01*
X43428869Y-24375595D01*
X43428869Y-24518452D01*
X43405059Y-24566071D01*
X43381250Y-24589880D01*
X43333630Y-24613690D01*
X43262202Y-24613690D01*
X43643154Y-24613690D02*
X43643154Y-24280357D01*
X43643154Y-24327976D02*
X43666964Y-24304166D01*
X43714583Y-24280357D01*
X43786011Y-24280357D01*
X43833630Y-24304166D01*
X43857440Y-24351785D01*
X43857440Y-24613690D01*
X43857440Y-24351785D02*
X43881250Y-24304166D01*
X43928869Y-24280357D01*
X44000297Y-24280357D01*
X44047916Y-24304166D01*
X44071726Y-24351785D01*
X44071726Y-24613690D01*
X44595535Y-24566071D02*
X44571726Y-24589880D01*
X44500297Y-24613690D01*
X44452678Y-24613690D01*
X44381250Y-24589880D01*
X44333630Y-24542261D01*
X44309821Y-24494642D01*
X44286011Y-24399404D01*
X44286011Y-24327976D01*
X44309821Y-24232738D01*
X44333630Y-24185119D01*
X44381250Y-24137500D01*
X44452678Y-24113690D01*
X44500297Y-24113690D01*
X44571726Y-24137500D01*
X44595535Y-24161309D01*
X45071726Y-24613690D02*
X44786011Y-24613690D01*
X44928869Y-24613690D02*
X44928869Y-24113690D01*
X44881250Y-24185119D01*
X44833630Y-24232738D01*
X44786011Y-24256547D01*
X45238392Y-24113690D02*
X45571726Y-24113690D01*
X45357440Y-24613690D01*
X46119345Y-24089880D02*
X45690773Y-24732738D01*
X46262202Y-24470833D02*
X46500297Y-24470833D01*
X46214583Y-24613690D02*
X46381250Y-24113690D01*
X46547916Y-24613690D01*
X46976488Y-24137500D02*
X46928869Y-24113690D01*
X46857440Y-24113690D01*
X46786011Y-24137500D01*
X46738392Y-24185119D01*
X46714583Y-24232738D01*
X46690773Y-24327976D01*
X46690773Y-24399404D01*
X46714583Y-24494642D01*
X46738392Y-24542261D01*
X46786011Y-24589880D01*
X46857440Y-24613690D01*
X46905059Y-24613690D01*
X46976488Y-24589880D01*
X47000297Y-24566071D01*
X47000297Y-24399404D01*
X46905059Y-24399404D01*
X47381250Y-24351785D02*
X47452678Y-24375595D01*
X47476488Y-24399404D01*
X47500297Y-24447023D01*
X47500297Y-24518452D01*
X47476488Y-24566071D01*
X47452678Y-24589880D01*
X47405059Y-24613690D01*
X47214583Y-24613690D01*
X47214583Y-24113690D01*
X47381250Y-24113690D01*
X47428869Y-24137500D01*
X47452678Y-24161309D01*
X47476488Y-24208928D01*
X47476488Y-24256547D01*
X47452678Y-24304166D01*
X47428869Y-24327976D01*
X47381250Y-24351785D01*
X47214583Y-24351785D01*
X47714583Y-24423214D02*
X48095535Y-24423214D01*
X48571726Y-24613690D02*
X48333630Y-24613690D01*
X48333630Y-24113690D01*
X48738392Y-24613690D02*
X48738392Y-24280357D01*
X48738392Y-24113690D02*
X48714583Y-24137500D01*
X48738392Y-24161309D01*
X48762202Y-24137500D01*
X48738392Y-24113690D01*
X48738392Y-24161309D01*
X48976488Y-24613690D02*
X48976488Y-24113690D01*
X49166964Y-24113690D01*
X49214583Y-24137500D01*
X49238392Y-24161309D01*
X49262202Y-24208928D01*
X49262202Y-24280357D01*
X49238392Y-24327976D01*
X49214583Y-24351785D01*
X49166964Y-24375595D01*
X48976488Y-24375595D01*
X49571726Y-24113690D02*
X49666964Y-24113690D01*
X49714583Y-24137500D01*
X49762202Y-24185119D01*
X49786011Y-24280357D01*
X49786011Y-24447023D01*
X49762202Y-24542261D01*
X49714583Y-24589880D01*
X49666964Y-24613690D01*
X49571726Y-24613690D01*
X49524107Y-24589880D01*
X49476488Y-24542261D01*
X49452678Y-24447023D01*
X49452678Y-24280357D01*
X49476488Y-24185119D01*
X49524107Y-24137500D01*
X49571726Y-24113690D01*
X50000297Y-24423214D02*
X50381250Y-24423214D01*
X50881250Y-24137500D02*
X50833630Y-24113690D01*
X50762202Y-24113690D01*
X50690773Y-24137500D01*
X50643154Y-24185119D01*
X50619345Y-24232738D01*
X50595535Y-24327976D01*
X50595535Y-24399404D01*
X50619345Y-24494642D01*
X50643154Y-24542261D01*
X50690773Y-24589880D01*
X50762202Y-24613690D01*
X50809821Y-24613690D01*
X50881250Y-24589880D01*
X50905059Y-24566071D01*
X50905059Y-24399404D01*
X50809821Y-24399404D01*
X51071726Y-24113690D02*
X51190773Y-24613690D01*
X51286011Y-24256547D01*
X51381250Y-24613690D01*
X51500297Y-24113690D01*
X51976488Y-24613690D02*
X51809821Y-24375595D01*
X51690773Y-24613690D02*
X51690773Y-24113690D01*
X51881250Y-24113690D01*
X51928869Y-24137500D01*
X51952678Y-24161309D01*
X51976488Y-24208928D01*
X51976488Y-24280357D01*
X51952678Y-24327976D01*
X51928869Y-24351785D01*
X51881250Y-24375595D01*
X51690773Y-24375595D01*
D12*
X34829761Y-21502380D02*
X35401190Y-21502380D01*
X35115476Y-22502380D02*
X35115476Y-21502380D01*
X35734523Y-22502380D02*
X35734523Y-21502380D01*
X36163095Y-22502380D02*
X36163095Y-21978571D01*
X36115476Y-21883333D01*
X36020238Y-21835714D01*
X35877380Y-21835714D01*
X35782142Y-21883333D01*
X35734523Y-21930952D01*
X37067857Y-22502380D02*
X37067857Y-21978571D01*
X37020238Y-21883333D01*
X36925000Y-21835714D01*
X36734523Y-21835714D01*
X36639285Y-21883333D01*
X37067857Y-22454761D02*
X36972619Y-22502380D01*
X36734523Y-22502380D01*
X36639285Y-22454761D01*
X36591666Y-22359523D01*
X36591666Y-22264285D01*
X36639285Y-22169047D01*
X36734523Y-22121428D01*
X36972619Y-22121428D01*
X37067857Y-22073809D01*
X37544047Y-21835714D02*
X37544047Y-22502380D01*
X37544047Y-21930952D02*
X37591666Y-21883333D01*
X37686904Y-21835714D01*
X37829761Y-21835714D01*
X37924999Y-21883333D01*
X37972619Y-21978571D01*
X37972619Y-22502380D01*
X38448809Y-22502380D02*
X38448809Y-21502380D01*
X38544047Y-22121428D02*
X38829761Y-22502380D01*
X38829761Y-21835714D02*
X38448809Y-22216666D01*
X39925000Y-21835714D02*
X40163095Y-22502380D01*
X40401190Y-21835714D02*
X40163095Y-22502380D01*
X40067857Y-22740476D01*
X40020238Y-22788095D01*
X39925000Y-22835714D01*
X40925000Y-22502380D02*
X40829761Y-22454761D01*
X40782142Y-22407142D01*
X40734523Y-22311904D01*
X40734523Y-22026190D01*
X40782142Y-21930952D01*
X40829761Y-21883333D01*
X40925000Y-21835714D01*
X41067857Y-21835714D01*
X41163095Y-21883333D01*
X41210714Y-21930952D01*
X41258333Y-22026190D01*
X41258333Y-22311904D01*
X41210714Y-22407142D01*
X41163095Y-22454761D01*
X41067857Y-22502380D01*
X40925000Y-22502380D01*
X42115476Y-21835714D02*
X42115476Y-22502380D01*
X41686904Y-21835714D02*
X41686904Y-22359523D01*
X41734523Y-22454761D01*
X41829761Y-22502380D01*
X41972619Y-22502380D01*
X42067857Y-22454761D01*
X42115476Y-22407142D01*
X43210714Y-21502380D02*
X43782142Y-21502380D01*
X43496428Y-22502380D02*
X43496428Y-21502380D01*
X44258333Y-22502380D02*
X44163095Y-22454761D01*
X44115476Y-22407142D01*
X44067857Y-22311904D01*
X44067857Y-22026190D01*
X44115476Y-21930952D01*
X44163095Y-21883333D01*
X44258333Y-21835714D01*
X44401190Y-21835714D01*
X44496428Y-21883333D01*
X44544047Y-21930952D01*
X44591666Y-22026190D01*
X44591666Y-22311904D01*
X44544047Y-22407142D01*
X44496428Y-22454761D01*
X44401190Y-22502380D01*
X44258333Y-22502380D01*
X45020238Y-22502380D02*
X45020238Y-21835714D01*
X45020238Y-21930952D02*
X45067857Y-21883333D01*
X45163095Y-21835714D01*
X45305952Y-21835714D01*
X45401190Y-21883333D01*
X45448809Y-21978571D01*
X45448809Y-22502380D01*
X45448809Y-21978571D02*
X45496428Y-21883333D01*
X45591666Y-21835714D01*
X45734523Y-21835714D01*
X45829761Y-21883333D01*
X45877380Y-21978571D01*
X45877380Y-22502380D01*
X34721428Y-17277380D02*
X35292857Y-17277380D01*
X35007142Y-18277380D02*
X35007142Y-17277380D01*
X35626190Y-18277380D02*
X35626190Y-17277380D01*
X36054761Y-18277380D02*
X36054761Y-17753571D01*
X36007142Y-17658333D01*
X35911904Y-17610714D01*
X35769047Y-17610714D01*
X35673809Y-17658333D01*
X35626190Y-17705952D01*
X36959523Y-18277380D02*
X36959523Y-17753571D01*
X36911904Y-17658333D01*
X36816666Y-17610714D01*
X36626190Y-17610714D01*
X36530952Y-17658333D01*
X36959523Y-18229761D02*
X36864285Y-18277380D01*
X36626190Y-18277380D01*
X36530952Y-18229761D01*
X36483333Y-18134523D01*
X36483333Y-18039285D01*
X36530952Y-17944047D01*
X36626190Y-17896428D01*
X36864285Y-17896428D01*
X36959523Y-17848809D01*
X37435714Y-17610714D02*
X37435714Y-18277380D01*
X37435714Y-17705952D02*
X37483333Y-17658333D01*
X37578571Y-17610714D01*
X37721428Y-17610714D01*
X37816666Y-17658333D01*
X37864285Y-17753571D01*
X37864285Y-18277380D01*
X38340476Y-18277380D02*
X38340476Y-17277380D01*
X38435714Y-17896428D02*
X38721428Y-18277380D01*
X38721428Y-17610714D02*
X38340476Y-17991666D01*
X39816666Y-17610714D02*
X40054761Y-18277380D01*
X40292857Y-17610714D02*
X40054761Y-18277380D01*
X39959523Y-18515476D01*
X39911904Y-18563095D01*
X39816666Y-18610714D01*
X40816666Y-18277380D02*
X40721428Y-18229761D01*
X40673809Y-18182142D01*
X40626190Y-18086904D01*
X40626190Y-17801190D01*
X40673809Y-17705952D01*
X40721428Y-17658333D01*
X40816666Y-17610714D01*
X40959523Y-17610714D01*
X41054761Y-17658333D01*
X41102380Y-17705952D01*
X41150000Y-17801190D01*
X41150000Y-18086904D01*
X41102380Y-18182142D01*
X41054761Y-18229761D01*
X40959523Y-18277380D01*
X40816666Y-18277380D01*
X42007142Y-17610714D02*
X42007142Y-18277380D01*
X41578571Y-17610714D02*
X41578571Y-18134523D01*
X41626190Y-18229761D01*
X41721428Y-18277380D01*
X41864285Y-18277380D01*
X41959523Y-18229761D01*
X42007142Y-18182142D01*
X43245238Y-18277380D02*
X43245238Y-17277380D01*
X43578571Y-17991666D01*
X43911904Y-17277380D01*
X43911904Y-18277380D01*
X44816666Y-18277380D02*
X44816666Y-17753571D01*
X44769047Y-17658333D01*
X44673809Y-17610714D01*
X44483333Y-17610714D01*
X44388095Y-17658333D01*
X44816666Y-18229761D02*
X44721428Y-18277380D01*
X44483333Y-18277380D01*
X44388095Y-18229761D01*
X44340476Y-18134523D01*
X44340476Y-18039285D01*
X44388095Y-17944047D01*
X44483333Y-17896428D01*
X44721428Y-17896428D01*
X44816666Y-17848809D01*
X45292857Y-18277380D02*
X45292857Y-17277380D01*
X45388095Y-17896428D02*
X45673809Y-18277380D01*
X45673809Y-17610714D02*
X45292857Y-17991666D01*
X46102380Y-18277380D02*
X46102380Y-17277380D01*
X46530952Y-18277380D02*
X46530952Y-17753571D01*
X46483333Y-17658333D01*
X46388095Y-17610714D01*
X46245238Y-17610714D01*
X46150000Y-17658333D01*
X46102380Y-17705952D01*
X47150000Y-18277380D02*
X47054761Y-18229761D01*
X47007142Y-18182142D01*
X46959523Y-18086904D01*
X46959523Y-17801190D01*
X47007142Y-17705952D01*
X47054761Y-17658333D01*
X47150000Y-17610714D01*
X47292857Y-17610714D01*
X47388095Y-17658333D01*
X47435714Y-17705952D01*
X47483333Y-17801190D01*
X47483333Y-18086904D01*
X47435714Y-18182142D01*
X47388095Y-18229761D01*
X47292857Y-18277380D01*
X47150000Y-18277380D01*
D13*
X34886660Y-19522250D02*
X35172375Y-19522250D01*
X34829517Y-19693678D02*
X35029517Y-19093678D01*
X35229517Y-19693678D01*
X35743803Y-19122250D02*
X35686660Y-19093678D01*
X35600946Y-19093678D01*
X35515232Y-19122250D01*
X35458089Y-19179392D01*
X35429517Y-19236535D01*
X35400946Y-19350821D01*
X35400946Y-19436535D01*
X35429517Y-19550821D01*
X35458089Y-19607964D01*
X35515232Y-19665107D01*
X35600946Y-19693678D01*
X35658089Y-19693678D01*
X35743803Y-19665107D01*
X35772375Y-19636535D01*
X35772375Y-19436535D01*
X35658089Y-19436535D01*
X36229517Y-19379392D02*
X36315232Y-19407964D01*
X36343803Y-19436535D01*
X36372375Y-19493678D01*
X36372375Y-19579392D01*
X36343803Y-19636535D01*
X36315232Y-19665107D01*
X36258089Y-19693678D01*
X36029517Y-19693678D01*
X36029517Y-19093678D01*
X36229517Y-19093678D01*
X36286660Y-19122250D01*
X36315232Y-19150821D01*
X36343803Y-19207964D01*
X36343803Y-19265107D01*
X36315232Y-19322250D01*
X36286660Y-19350821D01*
X36229517Y-19379392D01*
X36029517Y-19379392D01*
X36486660Y-19750821D02*
X36943803Y-19750821D01*
X37372375Y-19693678D02*
X37086660Y-19693678D01*
X37086660Y-19093678D01*
X37572375Y-19693678D02*
X37572375Y-19093678D01*
X37858089Y-19693678D02*
X37858089Y-19093678D01*
X38086660Y-19093678D01*
X38143803Y-19122250D01*
X38172375Y-19150821D01*
X38200946Y-19207964D01*
X38200946Y-19293678D01*
X38172375Y-19350821D01*
X38143803Y-19379392D01*
X38086660Y-19407964D01*
X37858089Y-19407964D01*
X38572375Y-19093678D02*
X38686660Y-19093678D01*
X38743803Y-19122250D01*
X38800946Y-19179392D01*
X38829517Y-19293678D01*
X38829517Y-19493678D01*
X38800946Y-19607964D01*
X38743803Y-19665107D01*
X38686660Y-19693678D01*
X38572375Y-19693678D01*
X38515232Y-19665107D01*
X38458089Y-19607964D01*
X38429517Y-19493678D01*
X38429517Y-19293678D01*
X38458089Y-19179392D01*
X38515232Y-19122250D01*
X38572375Y-19093678D01*
X38943803Y-19750821D02*
X39400946Y-19750821D01*
X39515232Y-19522250D02*
X39800946Y-19522250D01*
X39458089Y-19693678D02*
X39658089Y-19093678D01*
X39858089Y-19693678D01*
X40058089Y-19693678D02*
X40058089Y-19093678D01*
X40200946Y-19093678D01*
X40286660Y-19122250D01*
X40343803Y-19179392D01*
X40372375Y-19236535D01*
X40400946Y-19350821D01*
X40400946Y-19436535D01*
X40372375Y-19550821D01*
X40343803Y-19607964D01*
X40286660Y-19665107D01*
X40200946Y-19693678D01*
X40058089Y-19693678D01*
X40629517Y-19522250D02*
X40915232Y-19522250D01*
X40572375Y-19693678D02*
X40772375Y-19093678D01*
X40972375Y-19693678D01*
X41172375Y-19693678D02*
X41172375Y-19093678D01*
X41400946Y-19093678D01*
X41458089Y-19122250D01*
X41486660Y-19150821D01*
X41515232Y-19207964D01*
X41515232Y-19293678D01*
X41486660Y-19350821D01*
X41458089Y-19379392D01*
X41400946Y-19407964D01*
X41172375Y-19407964D01*
X41686660Y-19093678D02*
X42029517Y-19093678D01*
X41858089Y-19693678D02*
X41858089Y-19093678D01*
X42229517Y-19379392D02*
X42429517Y-19379392D01*
X42515232Y-19693678D02*
X42229517Y-19693678D01*
X42229517Y-19093678D01*
X42515232Y-19093678D01*
X43115232Y-19693678D02*
X42915232Y-19407964D01*
X42772375Y-19693678D02*
X42772375Y-19093678D01*
X43000946Y-19093678D01*
X43058089Y-19122250D01*
X43086660Y-19150821D01*
X43115232Y-19207964D01*
X43115232Y-19293678D01*
X43086660Y-19350821D01*
X43058089Y-19379392D01*
X43000946Y-19407964D01*
X42772375Y-19407964D01*
X43772375Y-19293678D02*
X43915232Y-19693678D01*
X44058089Y-19293678D01*
X44600946Y-19693678D02*
X44258089Y-19693678D01*
X44429517Y-19693678D02*
X44429517Y-19093678D01*
X44372375Y-19179392D01*
X44315232Y-19236535D01*
X44258089Y-19265107D01*
X44858089Y-19636535D02*
X44886660Y-19665107D01*
X44858089Y-19693678D01*
X44829517Y-19665107D01*
X44858089Y-19636535D01*
X44858089Y-19693678D01*
X45458089Y-19693678D02*
X45115232Y-19693678D01*
X45286660Y-19693678D02*
X45286660Y-19093678D01*
X45229517Y-19179392D01*
X45172375Y-19236535D01*
X45115232Y-19265107D01*
X34915232Y-20731178D02*
X34915232Y-20131178D01*
X35172375Y-20731178D02*
X35172375Y-20416892D01*
X35143803Y-20359750D01*
X35086660Y-20331178D01*
X35000946Y-20331178D01*
X34943803Y-20359750D01*
X34915232Y-20388321D01*
X35372375Y-20331178D02*
X35600946Y-20331178D01*
X35458089Y-20131178D02*
X35458089Y-20645464D01*
X35486660Y-20702607D01*
X35543803Y-20731178D01*
X35600946Y-20731178D01*
X35715232Y-20331178D02*
X35943803Y-20331178D01*
X35800946Y-20131178D02*
X35800946Y-20645464D01*
X35829517Y-20702607D01*
X35886660Y-20731178D01*
X35943803Y-20731178D01*
X36143803Y-20331178D02*
X36143803Y-20931178D01*
X36143803Y-20359750D02*
X36200946Y-20331178D01*
X36315232Y-20331178D01*
X36372375Y-20359750D01*
X36400946Y-20388321D01*
X36429517Y-20445464D01*
X36429517Y-20616892D01*
X36400946Y-20674035D01*
X36372375Y-20702607D01*
X36315232Y-20731178D01*
X36200946Y-20731178D01*
X36143803Y-20702607D01*
X36658089Y-20702607D02*
X36715232Y-20731178D01*
X36829517Y-20731178D01*
X36886660Y-20702607D01*
X36915232Y-20645464D01*
X36915232Y-20616892D01*
X36886660Y-20559750D01*
X36829517Y-20531178D01*
X36743803Y-20531178D01*
X36686660Y-20502607D01*
X36658089Y-20445464D01*
X36658089Y-20416892D01*
X36686660Y-20359750D01*
X36743803Y-20331178D01*
X36829517Y-20331178D01*
X36886660Y-20359750D01*
X37172375Y-20674035D02*
X37200946Y-20702607D01*
X37172375Y-20731178D01*
X37143803Y-20702607D01*
X37172375Y-20674035D01*
X37172375Y-20731178D01*
X37172375Y-20359750D02*
X37200946Y-20388321D01*
X37172375Y-20416892D01*
X37143803Y-20388321D01*
X37172375Y-20359750D01*
X37172375Y-20416892D01*
X37886660Y-20102607D02*
X37372375Y-20874035D01*
X38515232Y-20102607D02*
X38000946Y-20874035D01*
X38972375Y-20331178D02*
X38972375Y-20816892D01*
X38943803Y-20874035D01*
X38915232Y-20902607D01*
X38858089Y-20931178D01*
X38772375Y-20931178D01*
X38715232Y-20902607D01*
X38972375Y-20702607D02*
X38915232Y-20731178D01*
X38800946Y-20731178D01*
X38743803Y-20702607D01*
X38715232Y-20674035D01*
X38686660Y-20616892D01*
X38686660Y-20445464D01*
X38715232Y-20388321D01*
X38743803Y-20359750D01*
X38800946Y-20331178D01*
X38915232Y-20331178D01*
X38972375Y-20359750D01*
X39258089Y-20731178D02*
X39258089Y-20331178D01*
X39258089Y-20131178D02*
X39229517Y-20159750D01*
X39258089Y-20188321D01*
X39286660Y-20159750D01*
X39258089Y-20131178D01*
X39258089Y-20188321D01*
X39458089Y-20331178D02*
X39686660Y-20331178D01*
X39543803Y-20131178D02*
X39543803Y-20645464D01*
X39572375Y-20702607D01*
X39629517Y-20731178D01*
X39686660Y-20731178D01*
X39886660Y-20731178D02*
X39886660Y-20131178D01*
X40143803Y-20731178D02*
X40143803Y-20416892D01*
X40115232Y-20359750D01*
X40058089Y-20331178D01*
X39972375Y-20331178D01*
X39915232Y-20359750D01*
X39886660Y-20388321D01*
X40686660Y-20331178D02*
X40686660Y-20731178D01*
X40429517Y-20331178D02*
X40429517Y-20645464D01*
X40458089Y-20702607D01*
X40515232Y-20731178D01*
X40600946Y-20731178D01*
X40658089Y-20702607D01*
X40686660Y-20674035D01*
X40972375Y-20731178D02*
X40972375Y-20131178D01*
X40972375Y-20359750D02*
X41029517Y-20331178D01*
X41143803Y-20331178D01*
X41200946Y-20359750D01*
X41229517Y-20388321D01*
X41258089Y-20445464D01*
X41258089Y-20616892D01*
X41229517Y-20674035D01*
X41200946Y-20702607D01*
X41143803Y-20731178D01*
X41029517Y-20731178D01*
X40972375Y-20702607D01*
X41515232Y-20674035D02*
X41543803Y-20702607D01*
X41515232Y-20731178D01*
X41486660Y-20702607D01*
X41515232Y-20674035D01*
X41515232Y-20731178D01*
X42058089Y-20702607D02*
X42000946Y-20731178D01*
X41886660Y-20731178D01*
X41829517Y-20702607D01*
X41800946Y-20674035D01*
X41772375Y-20616892D01*
X41772375Y-20445464D01*
X41800946Y-20388321D01*
X41829517Y-20359750D01*
X41886660Y-20331178D01*
X42000946Y-20331178D01*
X42058089Y-20359750D01*
X42400946Y-20731178D02*
X42343803Y-20702607D01*
X42315232Y-20674035D01*
X42286660Y-20616892D01*
X42286660Y-20445464D01*
X42315232Y-20388321D01*
X42343803Y-20359750D01*
X42400946Y-20331178D01*
X42486660Y-20331178D01*
X42543803Y-20359750D01*
X42572375Y-20388321D01*
X42600946Y-20445464D01*
X42600946Y-20616892D01*
X42572375Y-20674035D01*
X42543803Y-20702607D01*
X42486660Y-20731178D01*
X42400946Y-20731178D01*
X42858089Y-20731178D02*
X42858089Y-20331178D01*
X42858089Y-20388321D02*
X42886660Y-20359750D01*
X42943803Y-20331178D01*
X43029517Y-20331178D01*
X43086660Y-20359750D01*
X43115232Y-20416892D01*
X43115232Y-20731178D01*
X43115232Y-20416892D02*
X43143803Y-20359750D01*
X43200946Y-20331178D01*
X43286660Y-20331178D01*
X43343803Y-20359750D01*
X43372375Y-20416892D01*
X43372375Y-20731178D01*
X44086660Y-20102607D02*
X43572375Y-20874035D01*
X44286660Y-20731178D02*
X44286660Y-20331178D01*
X44286660Y-20388321D02*
X44315232Y-20359750D01*
X44372375Y-20331178D01*
X44458089Y-20331178D01*
X44515232Y-20359750D01*
X44543803Y-20416892D01*
X44543803Y-20731178D01*
X44543803Y-20416892D02*
X44572375Y-20359750D01*
X44629517Y-20331178D01*
X44715232Y-20331178D01*
X44772375Y-20359750D01*
X44800946Y-20416892D01*
X44800946Y-20731178D01*
X45343803Y-20731178D02*
X45343803Y-20416892D01*
X45315232Y-20359750D01*
X45258089Y-20331178D01*
X45143803Y-20331178D01*
X45086660Y-20359750D01*
X45343803Y-20702607D02*
X45286660Y-20731178D01*
X45143803Y-20731178D01*
X45086660Y-20702607D01*
X45058089Y-20645464D01*
X45058089Y-20588321D01*
X45086660Y-20531178D01*
X45143803Y-20502607D01*
X45286660Y-20502607D01*
X45343803Y-20474035D01*
X45629517Y-20731178D02*
X45629517Y-20131178D01*
X45686660Y-20502607D02*
X45858089Y-20731178D01*
X45858089Y-20331178D02*
X45629517Y-20559750D01*
X46115232Y-20731178D02*
X46115232Y-20131178D01*
X46372375Y-20731178D02*
X46372375Y-20416892D01*
X46343803Y-20359750D01*
X46286660Y-20331178D01*
X46200946Y-20331178D01*
X46143803Y-20359750D01*
X46115232Y-20388321D01*
X46743803Y-20731178D02*
X46686660Y-20702607D01*
X46658089Y-20674035D01*
X46629517Y-20616892D01*
X46629517Y-20445464D01*
X46658089Y-20388321D01*
X46686660Y-20359750D01*
X46743803Y-20331178D01*
X46829517Y-20331178D01*
X46886660Y-20359750D01*
X46915232Y-20388321D01*
X46943803Y-20445464D01*
X46943803Y-20616892D01*
X46915232Y-20674035D01*
X46886660Y-20702607D01*
X46829517Y-20731178D01*
X46743803Y-20731178D01*
X47143803Y-20331178D02*
X47258089Y-20731178D01*
X47372375Y-20445464D01*
X47486660Y-20731178D01*
X47600946Y-20331178D01*
X48086660Y-20731178D02*
X48086660Y-20416892D01*
X48058089Y-20359750D01*
X48000946Y-20331178D01*
X47886660Y-20331178D01*
X47829517Y-20359750D01*
X48086660Y-20702607D02*
X48029517Y-20731178D01*
X47886660Y-20731178D01*
X47829517Y-20702607D01*
X47800946Y-20645464D01*
X47800946Y-20588321D01*
X47829517Y-20531178D01*
X47886660Y-20502607D01*
X48029517Y-20502607D01*
X48086660Y-20474035D01*
X48343803Y-20702607D02*
X48400946Y-20731178D01*
X48515232Y-20731178D01*
X48572375Y-20702607D01*
X48600946Y-20645464D01*
X48600946Y-20616892D01*
X48572375Y-20559750D01*
X48515232Y-20531178D01*
X48429517Y-20531178D01*
X48372375Y-20502607D01*
X48343803Y-20445464D01*
X48343803Y-20416892D01*
X48372375Y-20359750D01*
X48429517Y-20331178D01*
X48515232Y-20331178D01*
X48572375Y-20359750D01*
X48772375Y-20331178D02*
X49000946Y-20331178D01*
X48858089Y-20131178D02*
X48858089Y-20645464D01*
X48886660Y-20702607D01*
X48943803Y-20731178D01*
X49000946Y-20731178D01*
X49458089Y-20731178D02*
X49458089Y-20416892D01*
X49429517Y-20359750D01*
X49372375Y-20331178D01*
X49258089Y-20331178D01*
X49200946Y-20359750D01*
X49458089Y-20702607D02*
X49400946Y-20731178D01*
X49258089Y-20731178D01*
X49200946Y-20702607D01*
X49172375Y-20645464D01*
X49172375Y-20588321D01*
X49200946Y-20531178D01*
X49258089Y-20502607D01*
X49400946Y-20502607D01*
X49458089Y-20474035D01*
X49743803Y-20731178D02*
X49743803Y-20131178D01*
X49800946Y-20502607D02*
X49972375Y-20731178D01*
X49972375Y-20331178D02*
X49743803Y-20559750D01*
X50458089Y-20702607D02*
X50400946Y-20731178D01*
X50286660Y-20731178D01*
X50229517Y-20702607D01*
X50200946Y-20645464D01*
X50200946Y-20416892D01*
X50229517Y-20359750D01*
X50286660Y-20331178D01*
X50400946Y-20331178D01*
X50458089Y-20359750D01*
X50486660Y-20416892D01*
X50486660Y-20474035D01*
X50200946Y-20531178D01*
X50743803Y-20331178D02*
X50743803Y-20731178D01*
X50743803Y-20388321D02*
X50772375Y-20359750D01*
X50829517Y-20331178D01*
X50915232Y-20331178D01*
X50972375Y-20359750D01*
X51000946Y-20416892D01*
X51000946Y-20731178D01*
X51715232Y-20102607D02*
X51200946Y-20874035D01*
X51886660Y-20559750D02*
X52172375Y-20559750D01*
X51829517Y-20731178D02*
X52029517Y-20131178D01*
X52229517Y-20731178D01*
X52743803Y-20159750D02*
X52686660Y-20131178D01*
X52600946Y-20131178D01*
X52515232Y-20159750D01*
X52458089Y-20216892D01*
X52429517Y-20274035D01*
X52400946Y-20388321D01*
X52400946Y-20474035D01*
X52429517Y-20588321D01*
X52458089Y-20645464D01*
X52515232Y-20702607D01*
X52600946Y-20731178D01*
X52658089Y-20731178D01*
X52743803Y-20702607D01*
X52772375Y-20674035D01*
X52772375Y-20474035D01*
X52658089Y-20474035D01*
X53229517Y-20416892D02*
X53315232Y-20445464D01*
X53343803Y-20474035D01*
X53372375Y-20531178D01*
X53372375Y-20616892D01*
X53343803Y-20674035D01*
X53315232Y-20702607D01*
X53258089Y-20731178D01*
X53029517Y-20731178D01*
X53029517Y-20131178D01*
X53229517Y-20131178D01*
X53286660Y-20159750D01*
X53315232Y-20188321D01*
X53343803Y-20245464D01*
X53343803Y-20302607D01*
X53315232Y-20359750D01*
X53286660Y-20388321D01*
X53229517Y-20416892D01*
X53029517Y-20416892D01*
X53486660Y-20788321D02*
X53943803Y-20788321D01*
X54372375Y-20731178D02*
X54086660Y-20731178D01*
X54086660Y-20131178D01*
X54572375Y-20731178D02*
X54572375Y-20131178D01*
X54858089Y-20731178D02*
X54858089Y-20131178D01*
X55086660Y-20131178D01*
X55143803Y-20159750D01*
X55172375Y-20188321D01*
X55200946Y-20245464D01*
X55200946Y-20331178D01*
X55172375Y-20388321D01*
X55143803Y-20416892D01*
X55086660Y-20445464D01*
X54858089Y-20445464D01*
X55572375Y-20131178D02*
X55686660Y-20131178D01*
X55743803Y-20159750D01*
X55800946Y-20216892D01*
X55829517Y-20331178D01*
X55829517Y-20531178D01*
X55800946Y-20645464D01*
X55743803Y-20702607D01*
X55686660Y-20731178D01*
X55572375Y-20731178D01*
X55515232Y-20702607D01*
X55458089Y-20645464D01*
X55429517Y-20531178D01*
X55429517Y-20331178D01*
X55458089Y-20216892D01*
X55515232Y-20159750D01*
X55572375Y-20131178D01*
D12*
X37198809Y-33400000D02*
X37103571Y-33352380D01*
X36960714Y-33352380D01*
X36817857Y-33400000D01*
X36722619Y-33495238D01*
X36675000Y-33590476D01*
X36627380Y-33780952D01*
X36627380Y-33923809D01*
X36675000Y-34114285D01*
X36722619Y-34209523D01*
X36817857Y-34304761D01*
X36960714Y-34352380D01*
X37055952Y-34352380D01*
X37198809Y-34304761D01*
X37246428Y-34257142D01*
X37246428Y-33923809D01*
X37055952Y-33923809D01*
X37675000Y-34352380D02*
X37675000Y-33685714D01*
X37675000Y-33876190D02*
X37722619Y-33780952D01*
X37770238Y-33733333D01*
X37865476Y-33685714D01*
X37960714Y-33685714D01*
X38675000Y-34304761D02*
X38579761Y-34352380D01*
X38389285Y-34352380D01*
X38294047Y-34304761D01*
X38246428Y-34209523D01*
X38246428Y-33828571D01*
X38294047Y-33733333D01*
X38389285Y-33685714D01*
X38579761Y-33685714D01*
X38675000Y-33733333D01*
X38722619Y-33828571D01*
X38722619Y-33923809D01*
X38246428Y-34019047D01*
X39579761Y-34352380D02*
X39579761Y-33828571D01*
X39532142Y-33733333D01*
X39436904Y-33685714D01*
X39246428Y-33685714D01*
X39151190Y-33733333D01*
X39579761Y-34304761D02*
X39484523Y-34352380D01*
X39246428Y-34352380D01*
X39151190Y-34304761D01*
X39103571Y-34209523D01*
X39103571Y-34114285D01*
X39151190Y-34019047D01*
X39246428Y-33971428D01*
X39484523Y-33971428D01*
X39579761Y-33923809D01*
X39913095Y-33685714D02*
X40294047Y-33685714D01*
X40055952Y-33352380D02*
X40055952Y-34209523D01*
X40103571Y-34304761D01*
X40198809Y-34352380D01*
X40294047Y-34352380D01*
X41294047Y-33352380D02*
X41532142Y-34352380D01*
X41722619Y-33638095D01*
X41913095Y-34352380D01*
X42151190Y-33352380D01*
X42960714Y-34352380D02*
X42960714Y-33828571D01*
X42913095Y-33733333D01*
X42817857Y-33685714D01*
X42627380Y-33685714D01*
X42532142Y-33733333D01*
X42960714Y-34304761D02*
X42865476Y-34352380D01*
X42627380Y-34352380D01*
X42532142Y-34304761D01*
X42484523Y-34209523D01*
X42484523Y-34114285D01*
X42532142Y-34019047D01*
X42627380Y-33971428D01*
X42865476Y-33971428D01*
X42960714Y-33923809D01*
X43341666Y-33685714D02*
X43579761Y-34352380D01*
X43817857Y-33685714D01*
X44579761Y-34304761D02*
X44484523Y-34352380D01*
X44294047Y-34352380D01*
X44198809Y-34304761D01*
X44151190Y-34209523D01*
X44151190Y-33828571D01*
X44198809Y-33733333D01*
X44294047Y-33685714D01*
X44484523Y-33685714D01*
X44579761Y-33733333D01*
X44627380Y-33828571D01*
X44627380Y-33923809D01*
X44151190Y-34019047D01*
X46389285Y-34352380D02*
X46055952Y-33876190D01*
X45817857Y-34352380D02*
X45817857Y-33352380D01*
X46198809Y-33352380D01*
X46294047Y-33400000D01*
X46341666Y-33447619D01*
X46389285Y-33542857D01*
X46389285Y-33685714D01*
X46341666Y-33780952D01*
X46294047Y-33828571D01*
X46198809Y-33876190D01*
X45817857Y-33876190D01*
X47198809Y-34304761D02*
X47103571Y-34352380D01*
X46913095Y-34352380D01*
X46817857Y-34304761D01*
X46770238Y-34209523D01*
X46770238Y-33828571D01*
X46817857Y-33733333D01*
X46913095Y-33685714D01*
X47103571Y-33685714D01*
X47198809Y-33733333D01*
X47246428Y-33828571D01*
X47246428Y-33923809D01*
X46770238Y-34019047D01*
X47532142Y-33685714D02*
X47913095Y-33685714D01*
X47675000Y-34352380D02*
X47675000Y-33495238D01*
X47722619Y-33400000D01*
X47817857Y-33352380D01*
X47913095Y-33352380D01*
X48675000Y-33685714D02*
X48675000Y-34352380D01*
X48246428Y-33685714D02*
X48246428Y-34209523D01*
X48294047Y-34304761D01*
X48389285Y-34352380D01*
X48532142Y-34352380D01*
X48627380Y-34304761D01*
X48675000Y-34257142D01*
X49151190Y-34352380D02*
X49151190Y-33685714D01*
X49151190Y-33876190D02*
X49198809Y-33780952D01*
X49246428Y-33733333D01*
X49341666Y-33685714D01*
X49436904Y-33685714D01*
X49770238Y-34352380D02*
X49770238Y-33352380D01*
X49770238Y-33733333D02*
X49865476Y-33685714D01*
X50055952Y-33685714D01*
X50151190Y-33733333D01*
X50198809Y-33780952D01*
X50246428Y-33876190D01*
X50246428Y-34161904D01*
X50198809Y-34257142D01*
X50151190Y-34304761D01*
X50055952Y-34352380D01*
X49865476Y-34352380D01*
X49770238Y-34304761D01*
X50675000Y-34352380D02*
X50675000Y-33685714D01*
X50675000Y-33352380D02*
X50627380Y-33400000D01*
X50675000Y-33447619D01*
X50722619Y-33400000D01*
X50675000Y-33352380D01*
X50675000Y-33447619D01*
X51103571Y-34304761D02*
X51198809Y-34352380D01*
X51389285Y-34352380D01*
X51484523Y-34304761D01*
X51532142Y-34209523D01*
X51532142Y-34161904D01*
X51484523Y-34066666D01*
X51389285Y-34019047D01*
X51246428Y-34019047D01*
X51151190Y-33971428D01*
X51103571Y-33876190D01*
X51103571Y-33828571D01*
X51151190Y-33733333D01*
X51246428Y-33685714D01*
X51389285Y-33685714D01*
X51484523Y-33733333D01*
X51960714Y-34352380D02*
X51960714Y-33352380D01*
X52389285Y-34352380D02*
X52389285Y-33828571D01*
X52341666Y-33733333D01*
X52246428Y-33685714D01*
X52103571Y-33685714D01*
X52008333Y-33733333D01*
X51960714Y-33780952D01*
X52865476Y-34352380D02*
X52865476Y-33685714D01*
X52865476Y-33352380D02*
X52817857Y-33400000D01*
X52865476Y-33447619D01*
X52913095Y-33400000D01*
X52865476Y-33352380D01*
X52865476Y-33447619D01*
X53341666Y-33685714D02*
X53341666Y-34352380D01*
X53341666Y-33780952D02*
X53389285Y-33733333D01*
X53484523Y-33685714D01*
X53627380Y-33685714D01*
X53722619Y-33733333D01*
X53770238Y-33828571D01*
X53770238Y-34352380D01*
X54675000Y-33685714D02*
X54675000Y-34495238D01*
X54627380Y-34590476D01*
X54579761Y-34638095D01*
X54484523Y-34685714D01*
X54341666Y-34685714D01*
X54246428Y-34638095D01*
X54675000Y-34304761D02*
X54579761Y-34352380D01*
X54389285Y-34352380D01*
X54294047Y-34304761D01*
X54246428Y-34257142D01*
X54198809Y-34161904D01*
X54198809Y-33876190D01*
X54246428Y-33780952D01*
X54294047Y-33733333D01*
X54389285Y-33685714D01*
X54579761Y-33685714D01*
X54675000Y-33733333D01*
D14*
X59553571Y-25867857D02*
X59767857Y-25939285D01*
X59839285Y-26010714D01*
X59910714Y-26153571D01*
X59910714Y-26367857D01*
X59839285Y-26510714D01*
X59767857Y-26582142D01*
X59625000Y-26653571D01*
X59053571Y-26653571D01*
X59053571Y-25153571D01*
X59553571Y-25153571D01*
X59696428Y-25225000D01*
X59767857Y-25296428D01*
X59839285Y-25439285D01*
X59839285Y-25582142D01*
X59767857Y-25725000D01*
X59696428Y-25796428D01*
X59553571Y-25867857D01*
X59053571Y-25867857D01*
X60553571Y-26082142D02*
X61696428Y-26082142D01*
X59553571Y-20567857D02*
X59767857Y-20639285D01*
X59839285Y-20710714D01*
X59910714Y-20853571D01*
X59910714Y-21067857D01*
X59839285Y-21210714D01*
X59767857Y-21282142D01*
X59625000Y-21353571D01*
X59053571Y-21353571D01*
X59053571Y-19853571D01*
X59553571Y-19853571D01*
X59696428Y-19925000D01*
X59767857Y-19996428D01*
X59839285Y-20139285D01*
X59839285Y-20282142D01*
X59767857Y-20425000D01*
X59696428Y-20496428D01*
X59553571Y-20567857D01*
X59053571Y-20567857D01*
X60553571Y-20782142D02*
X61696428Y-20782142D01*
X61125000Y-21353571D02*
X61125000Y-20210714D01*
D11*
X15576190Y-25876785D02*
X15647619Y-25900595D01*
X15671428Y-25924404D01*
X15695238Y-25972023D01*
X15695238Y-26043452D01*
X15671428Y-26091071D01*
X15647619Y-26114880D01*
X15600000Y-26138690D01*
X15409523Y-26138690D01*
X15409523Y-25638690D01*
X15576190Y-25638690D01*
X15623809Y-25662500D01*
X15647619Y-25686309D01*
X15671428Y-25733928D01*
X15671428Y-25781547D01*
X15647619Y-25829166D01*
X15623809Y-25852976D01*
X15576190Y-25876785D01*
X15409523Y-25876785D01*
X15909523Y-25948214D02*
X16290476Y-25948214D01*
X16100000Y-26138690D02*
X16100000Y-25757738D01*
X15576190Y-28501785D02*
X15647619Y-28525595D01*
X15671428Y-28549404D01*
X15695238Y-28597023D01*
X15695238Y-28668452D01*
X15671428Y-28716071D01*
X15647619Y-28739880D01*
X15600000Y-28763690D01*
X15409523Y-28763690D01*
X15409523Y-28263690D01*
X15576190Y-28263690D01*
X15623809Y-28287500D01*
X15647619Y-28311309D01*
X15671428Y-28358928D01*
X15671428Y-28406547D01*
X15647619Y-28454166D01*
X15623809Y-28477976D01*
X15576190Y-28501785D01*
X15409523Y-28501785D01*
X15909523Y-28573214D02*
X16290476Y-28573214D01*
D12*
X17375000Y-12294000D02*
X34375000Y-12294000D01*
X34375000Y-38296000D02*
X17375000Y-38296000D01*
X17375000Y-38300000D02*
X17375000Y-12300000D01*
X34375000Y-38290000D02*
X34375000Y-12300000D01*
D15*
X43375000Y-13725000D02*
G75*
G03*
X43375000Y-13725000I-950000J0D01*
G01*
X40475000Y-13675000D02*
G75*
G03*
X40475000Y-13675000I-950000J0D01*
G01*
X36100000Y-33975000D02*
G75*
G03*
X36100000Y-33975000I-950000J0D01*
G01*
X17325000Y-33850000D02*
G75*
G03*
X17325000Y-33850000I-950000J0D01*
G01*
D16*
G36*
X40827286Y-28533644D02*
G01*
X41058240Y-28575964D01*
X41262925Y-28638041D01*
X41424429Y-28712956D01*
X41525839Y-28793791D01*
X41550241Y-28873627D01*
X41533466Y-28905185D01*
X41496133Y-28955491D01*
X41500924Y-28989173D01*
X41565310Y-29020410D01*
X41706765Y-29063379D01*
X41740321Y-29073040D01*
X41967442Y-29138402D01*
X41816521Y-29218767D01*
X41665600Y-29299133D01*
X41960917Y-29359345D01*
X42227444Y-29452043D01*
X42446653Y-29602785D01*
X42604545Y-29795179D01*
X42687118Y-30012832D01*
X42686917Y-30209319D01*
X42652480Y-30392884D01*
X42427763Y-30234489D01*
X42201120Y-30110101D01*
X41952812Y-30055502D01*
X41930792Y-30053517D01*
X41767774Y-30045044D01*
X41666236Y-30062869D01*
X41586878Y-30120388D01*
X41522369Y-30192767D01*
X41415404Y-30394524D01*
X41381931Y-30641157D01*
X41417352Y-30912550D01*
X41517067Y-31188582D01*
X41676477Y-31449135D01*
X41853562Y-31641689D01*
X42112032Y-31874076D01*
X41993346Y-32000411D01*
X41709803Y-32233252D01*
X41360554Y-32410732D01*
X40968143Y-32527842D01*
X40555111Y-32579570D01*
X40144001Y-32560905D01*
X39811400Y-32485459D01*
X39486822Y-32356194D01*
X39231776Y-32194702D01*
X39014685Y-31978741D01*
X38921518Y-31858623D01*
X38722660Y-31503677D01*
X38616074Y-31161366D01*
X38910692Y-31161366D01*
X38920569Y-31248500D01*
X38960353Y-31382843D01*
X39030942Y-31551385D01*
X39119052Y-31729368D01*
X39211400Y-31892035D01*
X39294703Y-32014630D01*
X39355678Y-32072395D01*
X39363492Y-32074000D01*
X39443722Y-32060772D01*
X39577738Y-32027686D01*
X39627706Y-32013713D01*
X39914759Y-31890953D01*
X40228142Y-31684054D01*
X40553973Y-31402184D01*
X40554738Y-31401446D01*
X40691966Y-31271792D01*
X40780314Y-31203278D01*
X40842965Y-31185422D01*
X40903100Y-31207741D01*
X40936570Y-31228788D01*
X41055812Y-31293523D01*
X41205982Y-31357943D01*
X41355920Y-31410953D01*
X41474466Y-31441457D01*
X41529279Y-31439853D01*
X41519790Y-31387932D01*
X41474175Y-31325011D01*
X41413223Y-31246398D01*
X41397950Y-31210400D01*
X41386296Y-31150526D01*
X41351704Y-31032143D01*
X41337712Y-30988807D01*
X41296109Y-30763824D01*
X41299503Y-30513064D01*
X41344207Y-30278958D01*
X41412900Y-30123271D01*
X41481245Y-30007719D01*
X41517783Y-29924487D01*
X41518700Y-29920071D01*
X41538901Y-29820608D01*
X41545959Y-29790607D01*
X41517725Y-29730058D01*
X41395854Y-29680585D01*
X41349910Y-29669471D01*
X41211926Y-29628697D01*
X41152756Y-29577427D01*
X41146710Y-29520063D01*
X41129542Y-29424256D01*
X41074346Y-29398838D01*
X41016530Y-29453795D01*
X41006087Y-29480403D01*
X40939847Y-29569705D01*
X40824947Y-29570779D01*
X40718473Y-29521300D01*
X40632166Y-29483394D01*
X40592011Y-29511185D01*
X40587929Y-29521300D01*
X40524741Y-29580408D01*
X40499186Y-29584800D01*
X40413991Y-29620459D01*
X40370199Y-29661000D01*
X40271562Y-29726132D01*
X40214577Y-29737200D01*
X40119155Y-29763174D01*
X40089424Y-29790225D01*
X40088563Y-29870929D01*
X40156442Y-29947237D01*
X40263405Y-29989440D01*
X40290060Y-29991200D01*
X40416833Y-30021745D01*
X40488077Y-30097548D01*
X40487795Y-30175190D01*
X40501102Y-30229410D01*
X40594959Y-30245200D01*
X40705308Y-30271070D01*
X40758229Y-30321400D01*
X40827422Y-30385302D01*
X40885229Y-30397600D01*
X40984581Y-30433161D01*
X41012420Y-30531645D01*
X40965528Y-30680755D01*
X40961425Y-30688814D01*
X40856264Y-30856479D01*
X40759620Y-30928757D01*
X40663163Y-30910460D01*
X40626448Y-30882234D01*
X40528283Y-30822419D01*
X40458403Y-30853496D01*
X40409711Y-30979915D01*
X40400590Y-31023866D01*
X40326183Y-31191454D01*
X40236755Y-31264648D01*
X40144643Y-31304125D01*
X40078571Y-31287443D01*
X39998714Y-31202047D01*
X39985346Y-31185372D01*
X39865843Y-31035500D01*
X39707848Y-31186450D01*
X39607201Y-31277857D01*
X39549173Y-31304630D01*
X39504078Y-31273513D01*
X39477426Y-31238790D01*
X39428590Y-31122141D01*
X39405319Y-30967903D01*
X39405000Y-30949571D01*
X39381230Y-30788387D01*
X39300755Y-30686081D01*
X39293764Y-30681049D01*
X39202571Y-30633354D01*
X39154064Y-30632921D01*
X39169375Y-30678773D01*
X39239900Y-30739549D01*
X39333286Y-30834729D01*
X39346258Y-30926219D01*
X39278000Y-30988829D01*
X39210515Y-31051117D01*
X39201800Y-31085836D01*
X39169266Y-31170604D01*
X39099671Y-31190537D01*
X39040186Y-31141332D01*
X38973545Y-31060460D01*
X38926551Y-31070569D01*
X38910692Y-31161366D01*
X38616074Y-31161366D01*
X38596493Y-31098483D01*
X38545574Y-30666300D01*
X38572458Y-30230390D01*
X38679702Y-29814011D01*
X38693021Y-29779208D01*
X38834128Y-29511271D01*
X39038291Y-29237205D01*
X39276160Y-28991368D01*
X39518381Y-28808121D01*
X39526905Y-28803071D01*
X39820289Y-28668435D01*
X40160965Y-28569708D01*
X40497023Y-28520848D01*
X40586977Y-28518000D01*
X40827286Y-28533644D01*
G37*
X40827286Y-28533644D02*
X41058240Y-28575964D01*
X41262925Y-28638041D01*
X41424429Y-28712956D01*
X41525839Y-28793791D01*
X41550241Y-28873627D01*
X41533466Y-28905185D01*
X41496133Y-28955491D01*
X41500924Y-28989173D01*
X41565310Y-29020410D01*
X41706765Y-29063379D01*
X41740321Y-29073040D01*
X41967442Y-29138402D01*
X41816521Y-29218767D01*
X41665600Y-29299133D01*
X41960917Y-29359345D01*
X42227444Y-29452043D01*
X42446653Y-29602785D01*
X42604545Y-29795179D01*
X42687118Y-30012832D01*
X42686917Y-30209319D01*
X42652480Y-30392884D01*
X42427763Y-30234489D01*
X42201120Y-30110101D01*
X41952812Y-30055502D01*
X41930792Y-30053517D01*
X41767774Y-30045044D01*
X41666236Y-30062869D01*
X41586878Y-30120388D01*
X41522369Y-30192767D01*
X41415404Y-30394524D01*
X41381931Y-30641157D01*
X41417352Y-30912550D01*
X41517067Y-31188582D01*
X41676477Y-31449135D01*
X41853562Y-31641689D01*
X42112032Y-31874076D01*
X41993346Y-32000411D01*
X41709803Y-32233252D01*
X41360554Y-32410732D01*
X40968143Y-32527842D01*
X40555111Y-32579570D01*
X40144001Y-32560905D01*
X39811400Y-32485459D01*
X39486822Y-32356194D01*
X39231776Y-32194702D01*
X39014685Y-31978741D01*
X38921518Y-31858623D01*
X38722660Y-31503677D01*
X38616074Y-31161366D01*
X38910692Y-31161366D01*
X38920569Y-31248500D01*
X38960353Y-31382843D01*
X39030942Y-31551385D01*
X39119052Y-31729368D01*
X39211400Y-31892035D01*
X39294703Y-32014630D01*
X39355678Y-32072395D01*
X39363492Y-32074000D01*
X39443722Y-32060772D01*
X39577738Y-32027686D01*
X39627706Y-32013713D01*
X39914759Y-31890953D01*
X40228142Y-31684054D01*
X40553973Y-31402184D01*
X40554738Y-31401446D01*
X40691966Y-31271792D01*
X40780314Y-31203278D01*
X40842965Y-31185422D01*
X40903100Y-31207741D01*
X40936570Y-31228788D01*
X41055812Y-31293523D01*
X41205982Y-31357943D01*
X41355920Y-31410953D01*
X41474466Y-31441457D01*
X41529279Y-31439853D01*
X41519790Y-31387932D01*
X41474175Y-31325011D01*
X41413223Y-31246398D01*
X41397950Y-31210400D01*
X41386296Y-31150526D01*
X41351704Y-31032143D01*
X41337712Y-30988807D01*
X41296109Y-30763824D01*
X41299503Y-30513064D01*
X41344207Y-30278958D01*
X41412900Y-30123271D01*
X41481245Y-30007719D01*
X41517783Y-29924487D01*
X41518700Y-29920071D01*
X41538901Y-29820608D01*
X41545959Y-29790607D01*
X41517725Y-29730058D01*
X41395854Y-29680585D01*
X41349910Y-29669471D01*
X41211926Y-29628697D01*
X41152756Y-29577427D01*
X41146710Y-29520063D01*
X41129542Y-29424256D01*
X41074346Y-29398838D01*
X41016530Y-29453795D01*
X41006087Y-29480403D01*
X40939847Y-29569705D01*
X40824947Y-29570779D01*
X40718473Y-29521300D01*
X40632166Y-29483394D01*
X40592011Y-29511185D01*
X40587929Y-29521300D01*
X40524741Y-29580408D01*
X40499186Y-29584800D01*
X40413991Y-29620459D01*
X40370199Y-29661000D01*
X40271562Y-29726132D01*
X40214577Y-29737200D01*
X40119155Y-29763174D01*
X40089424Y-29790225D01*
X40088563Y-29870929D01*
X40156442Y-29947237D01*
X40263405Y-29989440D01*
X40290060Y-29991200D01*
X40416833Y-30021745D01*
X40488077Y-30097548D01*
X40487795Y-30175190D01*
X40501102Y-30229410D01*
X40594959Y-30245200D01*
X40705308Y-30271070D01*
X40758229Y-30321400D01*
X40827422Y-30385302D01*
X40885229Y-30397600D01*
X40984581Y-30433161D01*
X41012420Y-30531645D01*
X40965528Y-30680755D01*
X40961425Y-30688814D01*
X40856264Y-30856479D01*
X40759620Y-30928757D01*
X40663163Y-30910460D01*
X40626448Y-30882234D01*
X40528283Y-30822419D01*
X40458403Y-30853496D01*
X40409711Y-30979915D01*
X40400590Y-31023866D01*
X40326183Y-31191454D01*
X40236755Y-31264648D01*
X40144643Y-31304125D01*
X40078571Y-31287443D01*
X39998714Y-31202047D01*
X39985346Y-31185372D01*
X39865843Y-31035500D01*
X39707848Y-31186450D01*
X39607201Y-31277857D01*
X39549173Y-31304630D01*
X39504078Y-31273513D01*
X39477426Y-31238790D01*
X39428590Y-31122141D01*
X39405319Y-30967903D01*
X39405000Y-30949571D01*
X39381230Y-30788387D01*
X39300755Y-30686081D01*
X39293764Y-30681049D01*
X39202571Y-30633354D01*
X39154064Y-30632921D01*
X39169375Y-30678773D01*
X39239900Y-30739549D01*
X39333286Y-30834729D01*
X39346258Y-30926219D01*
X39278000Y-30988829D01*
X39210515Y-31051117D01*
X39201800Y-31085836D01*
X39169266Y-31170604D01*
X39099671Y-31190537D01*
X39040186Y-31141332D01*
X38973545Y-31060460D01*
X38926551Y-31070569D01*
X38910692Y-31161366D01*
X38616074Y-31161366D01*
X38596493Y-31098483D01*
X38545574Y-30666300D01*
X38572458Y-30230390D01*
X38679702Y-29814011D01*
X38693021Y-29779208D01*
X38834128Y-29511271D01*
X39038291Y-29237205D01*
X39276160Y-28991368D01*
X39518381Y-28808121D01*
X39526905Y-28803071D01*
X39820289Y-28668435D01*
X40160965Y-28569708D01*
X40497023Y-28520848D01*
X40586977Y-28518000D01*
X40827286Y-28533644D01*
D12*
X52055000Y-12725000D02*
X52055000Y-13925000D01*
X52855000Y-12725000D02*
X52855000Y-13925000D01*
X52055000Y-12725000D02*
X52855000Y-13325000D01*
X52855000Y-13325000D02*
X52055000Y-13925000D01*
X52855000Y-13325000D02*
X53255000Y-13325000D01*
X52055000Y-13325000D02*
X51655000Y-13325000D01*
X47255000Y-12525000D02*
X47255000Y-14125000D01*
X47255000Y-14125000D02*
X53255000Y-14125000D01*
X53255000Y-14125000D02*
X53255000Y-12525000D01*
X53255000Y-12525000D02*
X47255000Y-12525000D01*
D15*
X12380500Y-25334500D02*
X13710500Y-25334500D01*
X12380500Y-26664500D02*
X12380500Y-25334500D01*
X12380500Y-27934500D02*
X15040500Y-27934500D01*
X15040500Y-27934500D02*
X15040500Y-30534500D01*
X12380500Y-27934500D02*
X12380500Y-30534500D01*
X12380500Y-30534500D02*
X15040500Y-30534500D01*
D12*
X27478571Y-14322619D02*
X27526190Y-14179761D01*
X27573809Y-14132142D01*
X27669047Y-14084523D01*
X27811904Y-14084523D01*
X27907142Y-14132142D01*
X27954761Y-14179761D01*
X28002380Y-14275000D01*
X28002380Y-14655952D01*
X27002380Y-14655952D01*
X27002380Y-14322619D01*
X27050000Y-14227380D01*
X27097619Y-14179761D01*
X27192857Y-14132142D01*
X27288095Y-14132142D01*
X27383333Y-14179761D01*
X27430952Y-14227380D01*
X27478571Y-14322619D01*
X27478571Y-14655952D01*
X27621428Y-13655952D02*
X27621428Y-12894047D01*
X24153571Y-14322619D02*
X24201190Y-14179761D01*
X24248809Y-14132142D01*
X24344047Y-14084523D01*
X24486904Y-14084523D01*
X24582142Y-14132142D01*
X24629761Y-14179761D01*
X24677380Y-14275000D01*
X24677380Y-14655952D01*
X23677380Y-14655952D01*
X23677380Y-14322619D01*
X23725000Y-14227380D01*
X23772619Y-14179761D01*
X23867857Y-14132142D01*
X23963095Y-14132142D01*
X24058333Y-14179761D01*
X24105952Y-14227380D01*
X24153571Y-14322619D01*
X24153571Y-14655952D01*
X24296428Y-13655952D02*
X24296428Y-12894047D01*
X24677380Y-13275000D02*
X23915476Y-13275000D01*
D17*
X14554761Y-12261904D02*
X14707142Y-12261904D01*
X14783333Y-12300000D01*
X14859523Y-12376190D01*
X14897619Y-12528571D01*
X14897619Y-12795238D01*
X14859523Y-12947619D01*
X14783333Y-13023809D01*
X14707142Y-13061904D01*
X14554761Y-13061904D01*
X14478571Y-13023809D01*
X14402380Y-12947619D01*
X14364285Y-12795238D01*
X14364285Y-12528571D01*
X14402380Y-12376190D01*
X14478571Y-12300000D01*
X14554761Y-12261904D01*
X15240476Y-12261904D02*
X15240476Y-12909523D01*
X15278571Y-12985714D01*
X15316666Y-13023809D01*
X15392857Y-13061904D01*
X15545238Y-13061904D01*
X15621428Y-13023809D01*
X15659523Y-12985714D01*
X15697619Y-12909523D01*
X15697619Y-12261904D01*
X15964285Y-12261904D02*
X16421428Y-12261904D01*
X16192857Y-13061904D02*
X16192857Y-12261904D01*
X16688095Y-12757142D02*
X17297619Y-12757142D01*
X16992857Y-13061904D02*
X16992857Y-12452380D01*
X34904761Y-12286904D02*
X35057142Y-12286904D01*
X35133333Y-12325000D01*
X35209523Y-12401190D01*
X35247619Y-12553571D01*
X35247619Y-12820238D01*
X35209523Y-12972619D01*
X35133333Y-13048809D01*
X35057142Y-13086904D01*
X34904761Y-13086904D01*
X34828571Y-13048809D01*
X34752380Y-12972619D01*
X34714285Y-12820238D01*
X34714285Y-12553571D01*
X34752380Y-12401190D01*
X34828571Y-12325000D01*
X34904761Y-12286904D01*
X35590476Y-12286904D02*
X35590476Y-12934523D01*
X35628571Y-13010714D01*
X35666666Y-13048809D01*
X35742857Y-13086904D01*
X35895238Y-13086904D01*
X35971428Y-13048809D01*
X36009523Y-13010714D01*
X36047619Y-12934523D01*
X36047619Y-12286904D01*
X36314285Y-12286904D02*
X36771428Y-12286904D01*
X36542857Y-13086904D02*
X36542857Y-12286904D01*
X37038095Y-12782142D02*
X37647619Y-12782142D01*
D11*
X41472619Y-12226190D02*
X41591666Y-12726190D01*
X41686904Y-12369047D01*
X41782142Y-12726190D01*
X41901190Y-12226190D01*
X42091666Y-12535714D02*
X42472619Y-12535714D01*
X42710714Y-12726190D02*
X42710714Y-12226190D01*
X42901190Y-12226190D01*
X42948809Y-12250000D01*
X42972619Y-12273809D01*
X42996428Y-12321428D01*
X42996428Y-12392857D01*
X42972619Y-12440476D01*
X42948809Y-12464285D01*
X42901190Y-12488095D01*
X42710714Y-12488095D01*
X43282142Y-12726190D02*
X43234523Y-12702380D01*
X43210714Y-12678571D01*
X43186904Y-12630952D01*
X43186904Y-12488095D01*
X43210714Y-12440476D01*
X43234523Y-12416666D01*
X43282142Y-12392857D01*
X43353571Y-12392857D01*
X43401190Y-12416666D01*
X43425000Y-12440476D01*
X43448809Y-12488095D01*
X43448809Y-12630952D01*
X43425000Y-12678571D01*
X43401190Y-12702380D01*
X43353571Y-12726190D01*
X43282142Y-12726190D01*
X43639285Y-12702380D02*
X43686904Y-12726190D01*
X43782142Y-12726190D01*
X43829761Y-12702380D01*
X43853571Y-12654761D01*
X43853571Y-12630952D01*
X43829761Y-12583333D01*
X43782142Y-12559523D01*
X43710714Y-12559523D01*
X43663095Y-12535714D01*
X43639285Y-12488095D01*
X43639285Y-12464285D01*
X43663095Y-12416666D01*
X43710714Y-12392857D01*
X43782142Y-12392857D01*
X43829761Y-12416666D01*
X38598809Y-12176190D02*
X38717857Y-12676190D01*
X38813095Y-12319047D01*
X38908333Y-12676190D01*
X39027380Y-12176190D01*
X39217857Y-12485714D02*
X39598809Y-12485714D01*
X39836904Y-12676190D02*
X39836904Y-12176190D01*
X40122619Y-12676190D01*
X40122619Y-12176190D01*
X40551190Y-12652380D02*
X40503571Y-12676190D01*
X40408333Y-12676190D01*
X40360714Y-12652380D01*
X40336904Y-12604761D01*
X40336904Y-12414285D01*
X40360714Y-12366666D01*
X40408333Y-12342857D01*
X40503571Y-12342857D01*
X40551190Y-12366666D01*
X40575000Y-12414285D01*
X40575000Y-12461904D01*
X40336904Y-12509523D01*
X41003571Y-12342857D02*
X41003571Y-12747619D01*
X40979761Y-12795238D01*
X40955952Y-12819047D01*
X40908333Y-12842857D01*
X40836904Y-12842857D01*
X40789285Y-12819047D01*
X41003571Y-12652380D02*
X40955952Y-12676190D01*
X40860714Y-12676190D01*
X40813095Y-12652380D01*
X40789285Y-12628571D01*
X40765476Y-12580952D01*
X40765476Y-12438095D01*
X40789285Y-12390476D01*
X40813095Y-12366666D01*
X40860714Y-12342857D01*
X40955952Y-12342857D01*
X41003571Y-12366666D01*
X31148809Y-33601190D02*
X31267857Y-34101190D01*
X31363095Y-33744047D01*
X31458333Y-34101190D01*
X31577380Y-33601190D01*
X31767857Y-33910714D02*
X32148809Y-33910714D01*
X32386904Y-34101190D02*
X32386904Y-33601190D01*
X32672619Y-34101190D01*
X32672619Y-33601190D01*
X33101190Y-34077380D02*
X33053571Y-34101190D01*
X32958333Y-34101190D01*
X32910714Y-34077380D01*
X32886904Y-34029761D01*
X32886904Y-33839285D01*
X32910714Y-33791666D01*
X32958333Y-33767857D01*
X33053571Y-33767857D01*
X33101190Y-33791666D01*
X33125000Y-33839285D01*
X33125000Y-33886904D01*
X32886904Y-33934523D01*
X33553571Y-33767857D02*
X33553571Y-34172619D01*
X33529761Y-34220238D01*
X33505952Y-34244047D01*
X33458333Y-34267857D01*
X33386904Y-34267857D01*
X33339285Y-34244047D01*
X33553571Y-34077380D02*
X33505952Y-34101190D01*
X33410714Y-34101190D01*
X33363095Y-34077380D01*
X33339285Y-34053571D01*
X33315476Y-34005952D01*
X33315476Y-33863095D01*
X33339285Y-33815476D01*
X33363095Y-33791666D01*
X33410714Y-33767857D01*
X33505952Y-33767857D01*
X33553571Y-33791666D01*
X12672619Y-33651190D02*
X12791666Y-34151190D01*
X12886904Y-33794047D01*
X12982142Y-34151190D01*
X13101190Y-33651190D01*
X13291666Y-33960714D02*
X13672619Y-33960714D01*
X13910714Y-34151190D02*
X13910714Y-33651190D01*
X14101190Y-33651190D01*
X14148809Y-33675000D01*
X14172619Y-33698809D01*
X14196428Y-33746428D01*
X14196428Y-33817857D01*
X14172619Y-33865476D01*
X14148809Y-33889285D01*
X14101190Y-33913095D01*
X13910714Y-33913095D01*
X14482142Y-34151190D02*
X14434523Y-34127380D01*
X14410714Y-34103571D01*
X14386904Y-34055952D01*
X14386904Y-33913095D01*
X14410714Y-33865476D01*
X14434523Y-33841666D01*
X14482142Y-33817857D01*
X14553571Y-33817857D01*
X14601190Y-33841666D01*
X14625000Y-33865476D01*
X14648809Y-33913095D01*
X14648809Y-34055952D01*
X14625000Y-34103571D01*
X14601190Y-34127380D01*
X14553571Y-34151190D01*
X14482142Y-34151190D01*
X14839285Y-34127380D02*
X14886904Y-34151190D01*
X14982142Y-34151190D01*
X15029761Y-34127380D01*
X15053571Y-34079761D01*
X15053571Y-34055952D01*
X15029761Y-34008333D01*
X14982142Y-33984523D01*
X14910714Y-33984523D01*
X14863095Y-33960714D01*
X14839285Y-33913095D01*
X14839285Y-33889285D01*
X14863095Y-33841666D01*
X14910714Y-33817857D01*
X14982142Y-33817857D01*
X15029761Y-33841666D01*
D12*
X47664523Y-13737704D02*
X47664523Y-12937704D01*
X47855000Y-12937704D01*
X47969285Y-12975800D01*
X48045476Y-13051990D01*
X48083571Y-13128180D01*
X48121666Y-13280561D01*
X48121666Y-13394847D01*
X48083571Y-13547228D01*
X48045476Y-13623419D01*
X47969285Y-13699609D01*
X47855000Y-13737704D01*
X47664523Y-13737704D01*
X48883571Y-13737704D02*
X48426428Y-13737704D01*
X48655000Y-13737704D02*
X48655000Y-12937704D01*
X48578809Y-13051990D01*
X48502619Y-13128180D01*
X48426428Y-13166276D01*
D11*
X14332142Y-24389285D02*
X14403571Y-24413095D01*
X14427380Y-24436904D01*
X14451190Y-24484523D01*
X14451190Y-24555952D01*
X14427380Y-24603571D01*
X14403571Y-24627380D01*
X14355952Y-24651190D01*
X14165476Y-24651190D01*
X14165476Y-24151190D01*
X14332142Y-24151190D01*
X14379761Y-24175000D01*
X14403571Y-24198809D01*
X14427380Y-24246428D01*
X14427380Y-24294047D01*
X14403571Y-24341666D01*
X14379761Y-24365476D01*
X14332142Y-24389285D01*
X14165476Y-24389285D01*
X14594047Y-24151190D02*
X14879761Y-24151190D01*
X14736904Y-24651190D02*
X14736904Y-24151190D01*
X15308333Y-24651190D02*
X15022619Y-24651190D01*
X15165476Y-24651190D02*
X15165476Y-24151190D01*
X15117857Y-24222619D01*
X15070238Y-24270238D01*
X15022619Y-24294047D01*
M02*
