G04 #@! TF.GenerationSoftware,KiCad,Pcbnew,(5.1.8)-1*
G04 #@! TF.CreationDate,2020-12-05T00:35:16+00:00*
G04 #@! TF.ProjectId,Great Wave Refurbishing GBA Battery Board,47726561-7420-4576-9176-652052656675,rev?*
G04 #@! TF.SameCoordinates,Original*
G04 #@! TF.FileFunction,Other,Fab,Top*
%FSLAX46Y46*%
G04 Gerber Fmt 4.6, Leading zero omitted, Abs format (unit mm)*
G04 Created by KiCad (PCBNEW (5.1.8)-1) date 2020-12-05 00:35:16*
%MOMM*%
%LPD*%
G01*
G04 APERTURE LIST*
%ADD10C,0.100000*%
%ADD11C,0.150000*%
G04 APERTURE END LIST*
D10*
X12440500Y-26029500D02*
X13075500Y-25394500D01*
X12440500Y-30474500D02*
X12440500Y-26029500D01*
X14980500Y-30474500D02*
X12440500Y-30474500D01*
X14980500Y-25394500D02*
X14980500Y-30474500D01*
X13075500Y-25394500D02*
X14980500Y-25394500D01*
D11*
X28139285Y-14927380D02*
X28710714Y-14927380D01*
X28425000Y-15927380D02*
X28425000Y-14927380D01*
X29425000Y-15879761D02*
X29329761Y-15927380D01*
X29139285Y-15927380D01*
X29044047Y-15879761D01*
X28996428Y-15784523D01*
X28996428Y-15403571D01*
X29044047Y-15308333D01*
X29139285Y-15260714D01*
X29329761Y-15260714D01*
X29425000Y-15308333D01*
X29472619Y-15403571D01*
X29472619Y-15498809D01*
X28996428Y-15594047D01*
X29853571Y-15879761D02*
X29948809Y-15927380D01*
X30139285Y-15927380D01*
X30234523Y-15879761D01*
X30282142Y-15784523D01*
X30282142Y-15736904D01*
X30234523Y-15641666D01*
X30139285Y-15594047D01*
X29996428Y-15594047D01*
X29901190Y-15546428D01*
X29853571Y-15451190D01*
X29853571Y-15403571D01*
X29901190Y-15308333D01*
X29996428Y-15260714D01*
X30139285Y-15260714D01*
X30234523Y-15308333D01*
X30567857Y-15260714D02*
X30948809Y-15260714D01*
X30710714Y-14927380D02*
X30710714Y-15784523D01*
X30758333Y-15879761D01*
X30853571Y-15927380D01*
X30948809Y-15927380D01*
X31282142Y-15927380D02*
X31282142Y-14927380D01*
X31663095Y-14927380D01*
X31758333Y-14975000D01*
X31805952Y-15022619D01*
X31853571Y-15117857D01*
X31853571Y-15260714D01*
X31805952Y-15355952D01*
X31758333Y-15403571D01*
X31663095Y-15451190D01*
X31282142Y-15451190D01*
X32425000Y-15927380D02*
X32329761Y-15879761D01*
X32282142Y-15832142D01*
X32234523Y-15736904D01*
X32234523Y-15451190D01*
X32282142Y-15355952D01*
X32329761Y-15308333D01*
X32425000Y-15260714D01*
X32567857Y-15260714D01*
X32663095Y-15308333D01*
X32710714Y-15355952D01*
X32758333Y-15451190D01*
X32758333Y-15736904D01*
X32710714Y-15832142D01*
X32663095Y-15879761D01*
X32567857Y-15927380D01*
X32425000Y-15927380D01*
X33186904Y-15927380D02*
X33186904Y-15260714D01*
X33186904Y-14927380D02*
X33139285Y-14975000D01*
X33186904Y-15022619D01*
X33234523Y-14975000D01*
X33186904Y-14927380D01*
X33186904Y-15022619D01*
X33663095Y-15260714D02*
X33663095Y-15927380D01*
X33663095Y-15355952D02*
X33710714Y-15308333D01*
X33805952Y-15260714D01*
X33948809Y-15260714D01*
X34044047Y-15308333D01*
X34091666Y-15403571D01*
X34091666Y-15927380D01*
X34425000Y-15260714D02*
X34805952Y-15260714D01*
X34567857Y-14927380D02*
X34567857Y-15784523D01*
X34615476Y-15879761D01*
X34710714Y-15927380D01*
X34805952Y-15927380D01*
X34901190Y-16022619D02*
X35663095Y-16022619D01*
X35758333Y-14927380D02*
X36329761Y-14927380D01*
X36044047Y-15927380D02*
X36044047Y-14927380D01*
X36663095Y-15927380D02*
X36663095Y-14927380D01*
X36663095Y-15403571D02*
X37234523Y-15403571D01*
X37234523Y-15927380D02*
X37234523Y-14927380D01*
X37567857Y-14927380D02*
X38139285Y-14927380D01*
X37853571Y-15927380D02*
X37853571Y-14927380D01*
X38472619Y-15927380D02*
X38472619Y-14927380D01*
X38853571Y-14927380D01*
X38948809Y-14975000D01*
X38996428Y-15022619D01*
X39044047Y-15117857D01*
X39044047Y-15260714D01*
X38996428Y-15355952D01*
X38948809Y-15403571D01*
X38853571Y-15451190D01*
X38472619Y-15451190D01*
X39901190Y-15927380D02*
X39901190Y-15403571D01*
X39853571Y-15308333D01*
X39758333Y-15260714D01*
X39567857Y-15260714D01*
X39472619Y-15308333D01*
X39901190Y-15879761D02*
X39805952Y-15927380D01*
X39567857Y-15927380D01*
X39472619Y-15879761D01*
X39425000Y-15784523D01*
X39425000Y-15689285D01*
X39472619Y-15594047D01*
X39567857Y-15546428D01*
X39805952Y-15546428D01*
X39901190Y-15498809D01*
X40805952Y-15927380D02*
X40805952Y-14927380D01*
X40805952Y-15879761D02*
X40710714Y-15927380D01*
X40520238Y-15927380D01*
X40425000Y-15879761D01*
X40377380Y-15832142D01*
X40329761Y-15736904D01*
X40329761Y-15451190D01*
X40377380Y-15355952D01*
X40425000Y-15308333D01*
X40520238Y-15260714D01*
X40710714Y-15260714D01*
X40805952Y-15308333D01*
X41044047Y-16022619D02*
X41805952Y-16022619D01*
X42044047Y-15927380D02*
X42044047Y-14927380D01*
X42282142Y-14927380D01*
X42425000Y-14975000D01*
X42520238Y-15070238D01*
X42567857Y-15165476D01*
X42615476Y-15355952D01*
X42615476Y-15498809D01*
X42567857Y-15689285D01*
X42520238Y-15784523D01*
X42425000Y-15879761D01*
X42282142Y-15927380D01*
X42044047Y-15927380D01*
X43567857Y-15927380D02*
X42996428Y-15927380D01*
X43282142Y-15927380D02*
X43282142Y-14927380D01*
X43186904Y-15070238D01*
X43091666Y-15165476D01*
X42996428Y-15213095D01*
X43996428Y-15832142D02*
X44044047Y-15879761D01*
X43996428Y-15927380D01*
X43948809Y-15879761D01*
X43996428Y-15832142D01*
X43996428Y-15927380D01*
X44948809Y-14927380D02*
X44472619Y-14927380D01*
X44425000Y-15403571D01*
X44472619Y-15355952D01*
X44567857Y-15308333D01*
X44805952Y-15308333D01*
X44901190Y-15355952D01*
X44948809Y-15403571D01*
X44996428Y-15498809D01*
X44996428Y-15736904D01*
X44948809Y-15832142D01*
X44901190Y-15879761D01*
X44805952Y-15927380D01*
X44567857Y-15927380D01*
X44472619Y-15879761D01*
X44425000Y-15832142D01*
X45425000Y-15927380D02*
X45425000Y-15260714D01*
X45425000Y-15355952D02*
X45472619Y-15308333D01*
X45567857Y-15260714D01*
X45710714Y-15260714D01*
X45805952Y-15308333D01*
X45853571Y-15403571D01*
X45853571Y-15927380D01*
X45853571Y-15403571D02*
X45901190Y-15308333D01*
X45996428Y-15260714D01*
X46139285Y-15260714D01*
X46234523Y-15308333D01*
X46282142Y-15403571D01*
X46282142Y-15927380D01*
X46758333Y-15927380D02*
X46758333Y-15260714D01*
X46758333Y-15355952D02*
X46805952Y-15308333D01*
X46901190Y-15260714D01*
X47044047Y-15260714D01*
X47139285Y-15308333D01*
X47186904Y-15403571D01*
X47186904Y-15927380D01*
X47186904Y-15403571D02*
X47234523Y-15308333D01*
X47329761Y-15260714D01*
X47472619Y-15260714D01*
X47567857Y-15308333D01*
X47615476Y-15403571D01*
X47615476Y-15927380D01*
X47853571Y-16022619D02*
X48615476Y-16022619D01*
X48853571Y-15927380D02*
X48853571Y-14927380D01*
X49091666Y-14927380D01*
X49234523Y-14975000D01*
X49329761Y-15070238D01*
X49377380Y-15165476D01*
X49424999Y-15355952D01*
X49424999Y-15498809D01*
X49377380Y-15689285D01*
X49329761Y-15784523D01*
X49234523Y-15879761D01*
X49091666Y-15927380D01*
X48853571Y-15927380D01*
X49853571Y-15927380D02*
X49853571Y-15260714D01*
X49853571Y-15451190D02*
X49901190Y-15355952D01*
X49948809Y-15308333D01*
X50044047Y-15260714D01*
X50139285Y-15260714D01*
X50472619Y-15927380D02*
X50472619Y-15260714D01*
X50472619Y-14927380D02*
X50424999Y-14975000D01*
X50472619Y-15022619D01*
X50520238Y-14975000D01*
X50472619Y-14927380D01*
X50472619Y-15022619D01*
X51091666Y-15927380D02*
X50996428Y-15879761D01*
X50948809Y-15784523D01*
X50948809Y-14927380D01*
X51615476Y-15927380D02*
X51520238Y-15879761D01*
X51472619Y-15784523D01*
X51472619Y-14927380D01*
X52186904Y-14927380D02*
X52282142Y-14927380D01*
X52377380Y-14975000D01*
X52424999Y-15022619D01*
X52472619Y-15117857D01*
X52520238Y-15308333D01*
X52520238Y-15546428D01*
X52472619Y-15736904D01*
X52424999Y-15832142D01*
X52377380Y-15879761D01*
X52282142Y-15927380D01*
X52186904Y-15927380D01*
X52091666Y-15879761D01*
X52044047Y-15832142D01*
X51996428Y-15736904D01*
X51948809Y-15546428D01*
X51948809Y-15308333D01*
X51996428Y-15117857D01*
X52044047Y-15022619D01*
X52091666Y-14975000D01*
X52186904Y-14927380D01*
X52948809Y-15832142D02*
X52996428Y-15879761D01*
X52948809Y-15927380D01*
X52901190Y-15879761D01*
X52948809Y-15832142D01*
X52948809Y-15927380D01*
X53329761Y-14927380D02*
X53996428Y-14927380D01*
X53567857Y-15927380D01*
X54377380Y-15927380D02*
X54377380Y-15260714D01*
X54377380Y-15355952D02*
X54424999Y-15308333D01*
X54520238Y-15260714D01*
X54663095Y-15260714D01*
X54758333Y-15308333D01*
X54805952Y-15403571D01*
X54805952Y-15927380D01*
X54805952Y-15403571D02*
X54853571Y-15308333D01*
X54948809Y-15260714D01*
X55091666Y-15260714D01*
X55186904Y-15308333D01*
X55234523Y-15403571D01*
X55234523Y-15927380D01*
X55710714Y-15927380D02*
X55710714Y-15260714D01*
X55710714Y-15355952D02*
X55758333Y-15308333D01*
X55853571Y-15260714D01*
X55996428Y-15260714D01*
X56091666Y-15308333D01*
X56139285Y-15403571D01*
X56139285Y-15927380D01*
X56139285Y-15403571D02*
X56186904Y-15308333D01*
X56282142Y-15260714D01*
X56424999Y-15260714D01*
X56520238Y-15308333D01*
X56567857Y-15403571D01*
X56567857Y-15927380D01*
X25239285Y-14877380D02*
X25810714Y-14877380D01*
X25525000Y-15877380D02*
X25525000Y-14877380D01*
X26525000Y-15829761D02*
X26429761Y-15877380D01*
X26239285Y-15877380D01*
X26144047Y-15829761D01*
X26096428Y-15734523D01*
X26096428Y-15353571D01*
X26144047Y-15258333D01*
X26239285Y-15210714D01*
X26429761Y-15210714D01*
X26525000Y-15258333D01*
X26572619Y-15353571D01*
X26572619Y-15448809D01*
X26096428Y-15544047D01*
X26953571Y-15829761D02*
X27048809Y-15877380D01*
X27239285Y-15877380D01*
X27334523Y-15829761D01*
X27382142Y-15734523D01*
X27382142Y-15686904D01*
X27334523Y-15591666D01*
X27239285Y-15544047D01*
X27096428Y-15544047D01*
X27001190Y-15496428D01*
X26953571Y-15401190D01*
X26953571Y-15353571D01*
X27001190Y-15258333D01*
X27096428Y-15210714D01*
X27239285Y-15210714D01*
X27334523Y-15258333D01*
X27667857Y-15210714D02*
X28048809Y-15210714D01*
X27810714Y-14877380D02*
X27810714Y-15734523D01*
X27858333Y-15829761D01*
X27953571Y-15877380D01*
X28048809Y-15877380D01*
X28382142Y-15877380D02*
X28382142Y-14877380D01*
X28763095Y-14877380D01*
X28858333Y-14925000D01*
X28905952Y-14972619D01*
X28953571Y-15067857D01*
X28953571Y-15210714D01*
X28905952Y-15305952D01*
X28858333Y-15353571D01*
X28763095Y-15401190D01*
X28382142Y-15401190D01*
X29525000Y-15877380D02*
X29429761Y-15829761D01*
X29382142Y-15782142D01*
X29334523Y-15686904D01*
X29334523Y-15401190D01*
X29382142Y-15305952D01*
X29429761Y-15258333D01*
X29525000Y-15210714D01*
X29667857Y-15210714D01*
X29763095Y-15258333D01*
X29810714Y-15305952D01*
X29858333Y-15401190D01*
X29858333Y-15686904D01*
X29810714Y-15782142D01*
X29763095Y-15829761D01*
X29667857Y-15877380D01*
X29525000Y-15877380D01*
X30286904Y-15877380D02*
X30286904Y-15210714D01*
X30286904Y-14877380D02*
X30239285Y-14925000D01*
X30286904Y-14972619D01*
X30334523Y-14925000D01*
X30286904Y-14877380D01*
X30286904Y-14972619D01*
X30763095Y-15210714D02*
X30763095Y-15877380D01*
X30763095Y-15305952D02*
X30810714Y-15258333D01*
X30905952Y-15210714D01*
X31048809Y-15210714D01*
X31144047Y-15258333D01*
X31191666Y-15353571D01*
X31191666Y-15877380D01*
X31525000Y-15210714D02*
X31905952Y-15210714D01*
X31667857Y-14877380D02*
X31667857Y-15734523D01*
X31715476Y-15829761D01*
X31810714Y-15877380D01*
X31905952Y-15877380D01*
X32001190Y-15972619D02*
X32763095Y-15972619D01*
X32858333Y-14877380D02*
X33429761Y-14877380D01*
X33144047Y-15877380D02*
X33144047Y-14877380D01*
X33763095Y-15877380D02*
X33763095Y-14877380D01*
X33763095Y-15353571D02*
X34334523Y-15353571D01*
X34334523Y-15877380D02*
X34334523Y-14877380D01*
X34667857Y-14877380D02*
X35239285Y-14877380D01*
X34953571Y-15877380D02*
X34953571Y-14877380D01*
X35572619Y-15877380D02*
X35572619Y-14877380D01*
X35953571Y-14877380D01*
X36048809Y-14925000D01*
X36096428Y-14972619D01*
X36144047Y-15067857D01*
X36144047Y-15210714D01*
X36096428Y-15305952D01*
X36048809Y-15353571D01*
X35953571Y-15401190D01*
X35572619Y-15401190D01*
X37001190Y-15877380D02*
X37001190Y-15353571D01*
X36953571Y-15258333D01*
X36858333Y-15210714D01*
X36667857Y-15210714D01*
X36572619Y-15258333D01*
X37001190Y-15829761D02*
X36905952Y-15877380D01*
X36667857Y-15877380D01*
X36572619Y-15829761D01*
X36525000Y-15734523D01*
X36525000Y-15639285D01*
X36572619Y-15544047D01*
X36667857Y-15496428D01*
X36905952Y-15496428D01*
X37001190Y-15448809D01*
X37905952Y-15877380D02*
X37905952Y-14877380D01*
X37905952Y-15829761D02*
X37810714Y-15877380D01*
X37620238Y-15877380D01*
X37525000Y-15829761D01*
X37477380Y-15782142D01*
X37429761Y-15686904D01*
X37429761Y-15401190D01*
X37477380Y-15305952D01*
X37525000Y-15258333D01*
X37620238Y-15210714D01*
X37810714Y-15210714D01*
X37905952Y-15258333D01*
X38144047Y-15972619D02*
X38905952Y-15972619D01*
X39144047Y-15877380D02*
X39144047Y-14877380D01*
X39382142Y-14877380D01*
X39525000Y-14925000D01*
X39620238Y-15020238D01*
X39667857Y-15115476D01*
X39715476Y-15305952D01*
X39715476Y-15448809D01*
X39667857Y-15639285D01*
X39620238Y-15734523D01*
X39525000Y-15829761D01*
X39382142Y-15877380D01*
X39144047Y-15877380D01*
X40667857Y-15877380D02*
X40096428Y-15877380D01*
X40382142Y-15877380D02*
X40382142Y-14877380D01*
X40286904Y-15020238D01*
X40191666Y-15115476D01*
X40096428Y-15163095D01*
X41096428Y-15782142D02*
X41144047Y-15829761D01*
X41096428Y-15877380D01*
X41048809Y-15829761D01*
X41096428Y-15782142D01*
X41096428Y-15877380D01*
X42048809Y-14877380D02*
X41572619Y-14877380D01*
X41525000Y-15353571D01*
X41572619Y-15305952D01*
X41667857Y-15258333D01*
X41905952Y-15258333D01*
X42001190Y-15305952D01*
X42048809Y-15353571D01*
X42096428Y-15448809D01*
X42096428Y-15686904D01*
X42048809Y-15782142D01*
X42001190Y-15829761D01*
X41905952Y-15877380D01*
X41667857Y-15877380D01*
X41572619Y-15829761D01*
X41525000Y-15782142D01*
X42525000Y-15877380D02*
X42525000Y-15210714D01*
X42525000Y-15305952D02*
X42572619Y-15258333D01*
X42667857Y-15210714D01*
X42810714Y-15210714D01*
X42905952Y-15258333D01*
X42953571Y-15353571D01*
X42953571Y-15877380D01*
X42953571Y-15353571D02*
X43001190Y-15258333D01*
X43096428Y-15210714D01*
X43239285Y-15210714D01*
X43334523Y-15258333D01*
X43382142Y-15353571D01*
X43382142Y-15877380D01*
X43858333Y-15877380D02*
X43858333Y-15210714D01*
X43858333Y-15305952D02*
X43905952Y-15258333D01*
X44001190Y-15210714D01*
X44144047Y-15210714D01*
X44239285Y-15258333D01*
X44286904Y-15353571D01*
X44286904Y-15877380D01*
X44286904Y-15353571D02*
X44334523Y-15258333D01*
X44429761Y-15210714D01*
X44572619Y-15210714D01*
X44667857Y-15258333D01*
X44715476Y-15353571D01*
X44715476Y-15877380D01*
X44953571Y-15972619D02*
X45715476Y-15972619D01*
X45953571Y-15877380D02*
X45953571Y-14877380D01*
X46191666Y-14877380D01*
X46334523Y-14925000D01*
X46429761Y-15020238D01*
X46477380Y-15115476D01*
X46524999Y-15305952D01*
X46524999Y-15448809D01*
X46477380Y-15639285D01*
X46429761Y-15734523D01*
X46334523Y-15829761D01*
X46191666Y-15877380D01*
X45953571Y-15877380D01*
X46953571Y-15877380D02*
X46953571Y-15210714D01*
X46953571Y-15401190D02*
X47001190Y-15305952D01*
X47048809Y-15258333D01*
X47144047Y-15210714D01*
X47239285Y-15210714D01*
X47572619Y-15877380D02*
X47572619Y-15210714D01*
X47572619Y-14877380D02*
X47524999Y-14925000D01*
X47572619Y-14972619D01*
X47620238Y-14925000D01*
X47572619Y-14877380D01*
X47572619Y-14972619D01*
X48191666Y-15877380D02*
X48096428Y-15829761D01*
X48048809Y-15734523D01*
X48048809Y-14877380D01*
X48715476Y-15877380D02*
X48620238Y-15829761D01*
X48572619Y-15734523D01*
X48572619Y-14877380D01*
X49286904Y-14877380D02*
X49382142Y-14877380D01*
X49477380Y-14925000D01*
X49524999Y-14972619D01*
X49572619Y-15067857D01*
X49620238Y-15258333D01*
X49620238Y-15496428D01*
X49572619Y-15686904D01*
X49524999Y-15782142D01*
X49477380Y-15829761D01*
X49382142Y-15877380D01*
X49286904Y-15877380D01*
X49191666Y-15829761D01*
X49144047Y-15782142D01*
X49096428Y-15686904D01*
X49048809Y-15496428D01*
X49048809Y-15258333D01*
X49096428Y-15067857D01*
X49144047Y-14972619D01*
X49191666Y-14925000D01*
X49286904Y-14877380D01*
X50048809Y-15782142D02*
X50096428Y-15829761D01*
X50048809Y-15877380D01*
X50001190Y-15829761D01*
X50048809Y-15782142D01*
X50048809Y-15877380D01*
X50429761Y-14877380D02*
X51096428Y-14877380D01*
X50667857Y-15877380D01*
X51477380Y-15877380D02*
X51477380Y-15210714D01*
X51477380Y-15305952D02*
X51524999Y-15258333D01*
X51620238Y-15210714D01*
X51763095Y-15210714D01*
X51858333Y-15258333D01*
X51905952Y-15353571D01*
X51905952Y-15877380D01*
X51905952Y-15353571D02*
X51953571Y-15258333D01*
X52048809Y-15210714D01*
X52191666Y-15210714D01*
X52286904Y-15258333D01*
X52334523Y-15353571D01*
X52334523Y-15877380D01*
X52810714Y-15877380D02*
X52810714Y-15210714D01*
X52810714Y-15305952D02*
X52858333Y-15258333D01*
X52953571Y-15210714D01*
X53096428Y-15210714D01*
X53191666Y-15258333D01*
X53239285Y-15353571D01*
X53239285Y-15877380D01*
X53239285Y-15353571D02*
X53286904Y-15258333D01*
X53382142Y-15210714D01*
X53524999Y-15210714D01*
X53620238Y-15258333D01*
X53667857Y-15353571D01*
X53667857Y-15877380D01*
X20864285Y-35177380D02*
X21435714Y-35177380D01*
X21150000Y-36177380D02*
X21150000Y-35177380D01*
X22150000Y-36129761D02*
X22054761Y-36177380D01*
X21864285Y-36177380D01*
X21769047Y-36129761D01*
X21721428Y-36034523D01*
X21721428Y-35653571D01*
X21769047Y-35558333D01*
X21864285Y-35510714D01*
X22054761Y-35510714D01*
X22150000Y-35558333D01*
X22197619Y-35653571D01*
X22197619Y-35748809D01*
X21721428Y-35844047D01*
X22578571Y-36129761D02*
X22673809Y-36177380D01*
X22864285Y-36177380D01*
X22959523Y-36129761D01*
X23007142Y-36034523D01*
X23007142Y-35986904D01*
X22959523Y-35891666D01*
X22864285Y-35844047D01*
X22721428Y-35844047D01*
X22626190Y-35796428D01*
X22578571Y-35701190D01*
X22578571Y-35653571D01*
X22626190Y-35558333D01*
X22721428Y-35510714D01*
X22864285Y-35510714D01*
X22959523Y-35558333D01*
X23292857Y-35510714D02*
X23673809Y-35510714D01*
X23435714Y-35177380D02*
X23435714Y-36034523D01*
X23483333Y-36129761D01*
X23578571Y-36177380D01*
X23673809Y-36177380D01*
X24007142Y-36177380D02*
X24007142Y-35177380D01*
X24388095Y-35177380D01*
X24483333Y-35225000D01*
X24530952Y-35272619D01*
X24578571Y-35367857D01*
X24578571Y-35510714D01*
X24530952Y-35605952D01*
X24483333Y-35653571D01*
X24388095Y-35701190D01*
X24007142Y-35701190D01*
X25150000Y-36177380D02*
X25054761Y-36129761D01*
X25007142Y-36082142D01*
X24959523Y-35986904D01*
X24959523Y-35701190D01*
X25007142Y-35605952D01*
X25054761Y-35558333D01*
X25150000Y-35510714D01*
X25292857Y-35510714D01*
X25388095Y-35558333D01*
X25435714Y-35605952D01*
X25483333Y-35701190D01*
X25483333Y-35986904D01*
X25435714Y-36082142D01*
X25388095Y-36129761D01*
X25292857Y-36177380D01*
X25150000Y-36177380D01*
X25911904Y-36177380D02*
X25911904Y-35510714D01*
X25911904Y-35177380D02*
X25864285Y-35225000D01*
X25911904Y-35272619D01*
X25959523Y-35225000D01*
X25911904Y-35177380D01*
X25911904Y-35272619D01*
X26388095Y-35510714D02*
X26388095Y-36177380D01*
X26388095Y-35605952D02*
X26435714Y-35558333D01*
X26530952Y-35510714D01*
X26673809Y-35510714D01*
X26769047Y-35558333D01*
X26816666Y-35653571D01*
X26816666Y-36177380D01*
X27150000Y-35510714D02*
X27530952Y-35510714D01*
X27292857Y-35177380D02*
X27292857Y-36034523D01*
X27340476Y-36129761D01*
X27435714Y-36177380D01*
X27530952Y-36177380D01*
X27626190Y-36272619D02*
X28388095Y-36272619D01*
X28483333Y-35177380D02*
X29054761Y-35177380D01*
X28769047Y-36177380D02*
X28769047Y-35177380D01*
X29388095Y-36177380D02*
X29388095Y-35177380D01*
X29388095Y-35653571D02*
X29959523Y-35653571D01*
X29959523Y-36177380D02*
X29959523Y-35177380D01*
X30292857Y-35177380D02*
X30864285Y-35177380D01*
X30578571Y-36177380D02*
X30578571Y-35177380D01*
X31197619Y-36177380D02*
X31197619Y-35177380D01*
X31578571Y-35177380D01*
X31673809Y-35225000D01*
X31721428Y-35272619D01*
X31769047Y-35367857D01*
X31769047Y-35510714D01*
X31721428Y-35605952D01*
X31673809Y-35653571D01*
X31578571Y-35701190D01*
X31197619Y-35701190D01*
X32626190Y-36177380D02*
X32626190Y-35653571D01*
X32578571Y-35558333D01*
X32483333Y-35510714D01*
X32292857Y-35510714D01*
X32197619Y-35558333D01*
X32626190Y-36129761D02*
X32530952Y-36177380D01*
X32292857Y-36177380D01*
X32197619Y-36129761D01*
X32150000Y-36034523D01*
X32150000Y-35939285D01*
X32197619Y-35844047D01*
X32292857Y-35796428D01*
X32530952Y-35796428D01*
X32626190Y-35748809D01*
X33530952Y-36177380D02*
X33530952Y-35177380D01*
X33530952Y-36129761D02*
X33435714Y-36177380D01*
X33245238Y-36177380D01*
X33150000Y-36129761D01*
X33102380Y-36082142D01*
X33054761Y-35986904D01*
X33054761Y-35701190D01*
X33102380Y-35605952D01*
X33150000Y-35558333D01*
X33245238Y-35510714D01*
X33435714Y-35510714D01*
X33530952Y-35558333D01*
X33769047Y-36272619D02*
X34530952Y-36272619D01*
X34769047Y-36177380D02*
X34769047Y-35177380D01*
X35007142Y-35177380D01*
X35150000Y-35225000D01*
X35245238Y-35320238D01*
X35292857Y-35415476D01*
X35340476Y-35605952D01*
X35340476Y-35748809D01*
X35292857Y-35939285D01*
X35245238Y-36034523D01*
X35150000Y-36129761D01*
X35007142Y-36177380D01*
X34769047Y-36177380D01*
X36292857Y-36177380D02*
X35721428Y-36177380D01*
X36007142Y-36177380D02*
X36007142Y-35177380D01*
X35911904Y-35320238D01*
X35816666Y-35415476D01*
X35721428Y-35463095D01*
X36721428Y-36082142D02*
X36769047Y-36129761D01*
X36721428Y-36177380D01*
X36673809Y-36129761D01*
X36721428Y-36082142D01*
X36721428Y-36177380D01*
X37673809Y-35177380D02*
X37197619Y-35177380D01*
X37150000Y-35653571D01*
X37197619Y-35605952D01*
X37292857Y-35558333D01*
X37530952Y-35558333D01*
X37626190Y-35605952D01*
X37673809Y-35653571D01*
X37721428Y-35748809D01*
X37721428Y-35986904D01*
X37673809Y-36082142D01*
X37626190Y-36129761D01*
X37530952Y-36177380D01*
X37292857Y-36177380D01*
X37197619Y-36129761D01*
X37150000Y-36082142D01*
X38150000Y-36177380D02*
X38150000Y-35510714D01*
X38150000Y-35605952D02*
X38197619Y-35558333D01*
X38292857Y-35510714D01*
X38435714Y-35510714D01*
X38530952Y-35558333D01*
X38578571Y-35653571D01*
X38578571Y-36177380D01*
X38578571Y-35653571D02*
X38626190Y-35558333D01*
X38721428Y-35510714D01*
X38864285Y-35510714D01*
X38959523Y-35558333D01*
X39007142Y-35653571D01*
X39007142Y-36177380D01*
X39483333Y-36177380D02*
X39483333Y-35510714D01*
X39483333Y-35605952D02*
X39530952Y-35558333D01*
X39626190Y-35510714D01*
X39769047Y-35510714D01*
X39864285Y-35558333D01*
X39911904Y-35653571D01*
X39911904Y-36177380D01*
X39911904Y-35653571D02*
X39959523Y-35558333D01*
X40054761Y-35510714D01*
X40197619Y-35510714D01*
X40292857Y-35558333D01*
X40340476Y-35653571D01*
X40340476Y-36177380D01*
X40578571Y-36272619D02*
X41340476Y-36272619D01*
X41578571Y-36177380D02*
X41578571Y-35177380D01*
X41816666Y-35177380D01*
X41959523Y-35225000D01*
X42054761Y-35320238D01*
X42102380Y-35415476D01*
X42149999Y-35605952D01*
X42149999Y-35748809D01*
X42102380Y-35939285D01*
X42054761Y-36034523D01*
X41959523Y-36129761D01*
X41816666Y-36177380D01*
X41578571Y-36177380D01*
X42578571Y-36177380D02*
X42578571Y-35510714D01*
X42578571Y-35701190D02*
X42626190Y-35605952D01*
X42673809Y-35558333D01*
X42769047Y-35510714D01*
X42864285Y-35510714D01*
X43197619Y-36177380D02*
X43197619Y-35510714D01*
X43197619Y-35177380D02*
X43149999Y-35225000D01*
X43197619Y-35272619D01*
X43245238Y-35225000D01*
X43197619Y-35177380D01*
X43197619Y-35272619D01*
X43816666Y-36177380D02*
X43721428Y-36129761D01*
X43673809Y-36034523D01*
X43673809Y-35177380D01*
X44340476Y-36177380D02*
X44245238Y-36129761D01*
X44197619Y-36034523D01*
X44197619Y-35177380D01*
X44911904Y-35177380D02*
X45007142Y-35177380D01*
X45102380Y-35225000D01*
X45149999Y-35272619D01*
X45197619Y-35367857D01*
X45245238Y-35558333D01*
X45245238Y-35796428D01*
X45197619Y-35986904D01*
X45149999Y-36082142D01*
X45102380Y-36129761D01*
X45007142Y-36177380D01*
X44911904Y-36177380D01*
X44816666Y-36129761D01*
X44769047Y-36082142D01*
X44721428Y-35986904D01*
X44673809Y-35796428D01*
X44673809Y-35558333D01*
X44721428Y-35367857D01*
X44769047Y-35272619D01*
X44816666Y-35225000D01*
X44911904Y-35177380D01*
X45673809Y-36082142D02*
X45721428Y-36129761D01*
X45673809Y-36177380D01*
X45626190Y-36129761D01*
X45673809Y-36082142D01*
X45673809Y-36177380D01*
X46054761Y-35177380D02*
X46721428Y-35177380D01*
X46292857Y-36177380D01*
X47102380Y-36177380D02*
X47102380Y-35510714D01*
X47102380Y-35605952D02*
X47149999Y-35558333D01*
X47245238Y-35510714D01*
X47388095Y-35510714D01*
X47483333Y-35558333D01*
X47530952Y-35653571D01*
X47530952Y-36177380D01*
X47530952Y-35653571D02*
X47578571Y-35558333D01*
X47673809Y-35510714D01*
X47816666Y-35510714D01*
X47911904Y-35558333D01*
X47959523Y-35653571D01*
X47959523Y-36177380D01*
X48435714Y-36177380D02*
X48435714Y-35510714D01*
X48435714Y-35605952D02*
X48483333Y-35558333D01*
X48578571Y-35510714D01*
X48721428Y-35510714D01*
X48816666Y-35558333D01*
X48864285Y-35653571D01*
X48864285Y-36177380D01*
X48864285Y-35653571D02*
X48911904Y-35558333D01*
X49007142Y-35510714D01*
X49149999Y-35510714D01*
X49245238Y-35558333D01*
X49292857Y-35653571D01*
X49292857Y-36177380D01*
X9805738Y-31463071D02*
X9948595Y-31510690D01*
X9996214Y-31558309D01*
X10043833Y-31653547D01*
X10043833Y-31796404D01*
X9996214Y-31891642D01*
X9948595Y-31939261D01*
X9853357Y-31986880D01*
X9472404Y-31986880D01*
X9472404Y-30986880D01*
X9805738Y-30986880D01*
X9900976Y-31034500D01*
X9948595Y-31082119D01*
X9996214Y-31177357D01*
X9996214Y-31272595D01*
X9948595Y-31367833D01*
X9900976Y-31415452D01*
X9805738Y-31463071D01*
X9472404Y-31463071D01*
X10900976Y-31986880D02*
X10900976Y-31463071D01*
X10853357Y-31367833D01*
X10758119Y-31320214D01*
X10567642Y-31320214D01*
X10472404Y-31367833D01*
X10900976Y-31939261D02*
X10805738Y-31986880D01*
X10567642Y-31986880D01*
X10472404Y-31939261D01*
X10424785Y-31844023D01*
X10424785Y-31748785D01*
X10472404Y-31653547D01*
X10567642Y-31605928D01*
X10805738Y-31605928D01*
X10900976Y-31558309D01*
X11234309Y-31320214D02*
X11615261Y-31320214D01*
X11377166Y-30986880D02*
X11377166Y-31844023D01*
X11424785Y-31939261D01*
X11520023Y-31986880D01*
X11615261Y-31986880D01*
X11805738Y-31320214D02*
X12186690Y-31320214D01*
X11948595Y-30986880D02*
X11948595Y-31844023D01*
X11996214Y-31939261D01*
X12091452Y-31986880D01*
X12186690Y-31986880D01*
X12900976Y-31939261D02*
X12805738Y-31986880D01*
X12615261Y-31986880D01*
X12520023Y-31939261D01*
X12472404Y-31844023D01*
X12472404Y-31463071D01*
X12520023Y-31367833D01*
X12615261Y-31320214D01*
X12805738Y-31320214D01*
X12900976Y-31367833D01*
X12948595Y-31463071D01*
X12948595Y-31558309D01*
X12472404Y-31653547D01*
X13377166Y-31986880D02*
X13377166Y-31320214D01*
X13377166Y-31510690D02*
X13424785Y-31415452D01*
X13472404Y-31367833D01*
X13567642Y-31320214D01*
X13662880Y-31320214D01*
X13900976Y-31320214D02*
X14139071Y-31986880D01*
X14377166Y-31320214D02*
X14139071Y-31986880D01*
X14043833Y-32224976D01*
X13996214Y-32272595D01*
X13900976Y-32320214D01*
X14520023Y-32082119D02*
X15281928Y-32082119D01*
X16091452Y-31891642D02*
X16043833Y-31939261D01*
X15900976Y-31986880D01*
X15805738Y-31986880D01*
X15662880Y-31939261D01*
X15567642Y-31844023D01*
X15520023Y-31748785D01*
X15472404Y-31558309D01*
X15472404Y-31415452D01*
X15520023Y-31224976D01*
X15567642Y-31129738D01*
X15662880Y-31034500D01*
X15805738Y-30986880D01*
X15900976Y-30986880D01*
X16043833Y-31034500D01*
X16091452Y-31082119D01*
X16900976Y-31939261D02*
X16805738Y-31986880D01*
X16615261Y-31986880D01*
X16520023Y-31939261D01*
X16472404Y-31844023D01*
X16472404Y-31463071D01*
X16520023Y-31367833D01*
X16615261Y-31320214D01*
X16805738Y-31320214D01*
X16900976Y-31367833D01*
X16948595Y-31463071D01*
X16948595Y-31558309D01*
X16472404Y-31653547D01*
X17520023Y-31986880D02*
X17424785Y-31939261D01*
X17377166Y-31844023D01*
X17377166Y-30986880D01*
X18043833Y-31986880D02*
X17948595Y-31939261D01*
X17900976Y-31844023D01*
X17900976Y-30986880D01*
X13639071Y-28720214D02*
X13686690Y-28577357D01*
X13734309Y-28529738D01*
X13829547Y-28482119D01*
X13972404Y-28482119D01*
X14067642Y-28529738D01*
X14115261Y-28577357D01*
X14162880Y-28672595D01*
X14162880Y-29053547D01*
X13162880Y-29053547D01*
X13162880Y-28720214D01*
X13210500Y-28624976D01*
X13258119Y-28577357D01*
X13353357Y-28529738D01*
X13448595Y-28529738D01*
X13543833Y-28577357D01*
X13591452Y-28624976D01*
X13639071Y-28720214D01*
X13639071Y-29053547D01*
X13162880Y-28196404D02*
X13162880Y-27624976D01*
X14162880Y-27910690D02*
X13162880Y-27910690D01*
X14162880Y-26767833D02*
X14162880Y-27339261D01*
X14162880Y-27053547D02*
X13162880Y-27053547D01*
X13305738Y-27148785D01*
X13400976Y-27244023D01*
X13448595Y-27339261D01*
M02*
