G04 #@! TF.GenerationSoftware,KiCad,Pcbnew,(5.1.8)-1*
G04 #@! TF.CreationDate,2020-12-05T00:35:16+00:00*
G04 #@! TF.ProjectId,Great Wave Refurbishing GBA Battery Board,47726561-7420-4576-9176-652052656675,rev?*
G04 #@! TF.SameCoordinates,Original*
G04 #@! TF.FileFunction,Soldermask,Bot*
G04 #@! TF.FilePolarity,Negative*
%FSLAX46Y46*%
G04 Gerber Fmt 4.6, Leading zero omitted, Abs format (unit mm)*
G04 Created by KiCad (PCBNEW (5.1.8)-1) date 2020-12-05 00:35:16*
%MOMM*%
%LPD*%
G01*
G04 APERTURE LIST*
%ADD10C,0.100000*%
%ADD11C,1.602000*%
%ADD12C,1.702000*%
%ADD13O,1.802000X1.802000*%
G04 APERTURE END LIST*
D10*
G36*
X62128000Y-33075000D02*
G01*
X55878000Y-33075000D01*
X55878000Y-27825000D01*
X62128000Y-27825000D01*
X62128000Y-33075000D01*
G37*
X62128000Y-33075000D02*
X55878000Y-33075000D01*
X55878000Y-27825000D01*
X62128000Y-27825000D01*
X62128000Y-33075000D01*
G36*
X62153000Y-19475000D02*
G01*
X55903000Y-19475000D01*
X55903000Y-14225000D01*
X62153000Y-14225000D01*
X62153000Y-19475000D01*
G37*
X62153000Y-19475000D02*
X55903000Y-19475000D01*
X55903000Y-14225000D01*
X62153000Y-14225000D01*
X62153000Y-19475000D01*
G36*
X62128000Y-33075000D02*
G01*
X55878000Y-33075000D01*
X55878000Y-27825000D01*
X62128000Y-27825000D01*
X62128000Y-33075000D01*
G37*
X62128000Y-33075000D02*
X55878000Y-33075000D01*
X55878000Y-27825000D01*
X62128000Y-27825000D01*
X62128000Y-33075000D01*
G36*
X62153000Y-19475000D02*
G01*
X55903000Y-19475000D01*
X55903000Y-14225000D01*
X62153000Y-14225000D01*
X62153000Y-19475000D01*
G37*
X62153000Y-19475000D02*
X55903000Y-19475000D01*
X55903000Y-14225000D01*
X62153000Y-14225000D01*
X62153000Y-19475000D01*
G36*
G01*
X34125000Y-15301000D02*
X31625000Y-15301000D01*
G75*
G02*
X31574000Y-15250000I0J51000D01*
G01*
X31574000Y-12750000D01*
G75*
G02*
X31625000Y-12699000I51000J0D01*
G01*
X34125000Y-12699000D01*
G75*
G02*
X34176000Y-12750000I0J-51000D01*
G01*
X34176000Y-15250000D01*
G75*
G02*
X34125000Y-15301000I-51000J0D01*
G01*
G37*
G36*
G01*
X20125000Y-15301000D02*
X17625000Y-15301000D01*
G75*
G02*
X17574000Y-15250000I0J51000D01*
G01*
X17574000Y-12750000D01*
G75*
G02*
X17625000Y-12699000I51000J0D01*
G01*
X20125000Y-12699000D01*
G75*
G02*
X20176000Y-12750000I0J-51000D01*
G01*
X20176000Y-15250000D01*
G75*
G02*
X20125000Y-15301000I-51000J0D01*
G01*
G37*
G36*
G01*
X23375000Y-15301000D02*
X20875000Y-15301000D01*
G75*
G02*
X20824000Y-15250000I0J51000D01*
G01*
X20824000Y-12750000D01*
G75*
G02*
X20875000Y-12699000I51000J0D01*
G01*
X23375000Y-12699000D01*
G75*
G02*
X23426000Y-12750000I0J-51000D01*
G01*
X23426000Y-15250000D01*
G75*
G02*
X23375000Y-15301000I-51000J0D01*
G01*
G37*
G36*
G01*
X30875000Y-15301000D02*
X28375000Y-15301000D01*
G75*
G02*
X28324000Y-15250000I0J51000D01*
G01*
X28324000Y-12750000D01*
G75*
G02*
X28375000Y-12699000I51000J0D01*
G01*
X30875000Y-12699000D01*
G75*
G02*
X30926000Y-12750000I0J-51000D01*
G01*
X30926000Y-15250000D01*
G75*
G02*
X30875000Y-15301000I-51000J0D01*
G01*
G37*
D11*
X42425000Y-13725000D03*
X39525000Y-13675000D03*
X35150000Y-33975000D03*
X16375000Y-33850000D03*
G36*
G01*
X50244000Y-13995000D02*
X50244000Y-12655000D01*
G75*
G02*
X50295000Y-12604000I51000J0D01*
G01*
X51635000Y-12604000D01*
G75*
G02*
X51686000Y-12655000I0J-51000D01*
G01*
X51686000Y-13995000D01*
G75*
G02*
X51635000Y-14046000I-51000J0D01*
G01*
X50295000Y-14046000D01*
G75*
G02*
X50244000Y-13995000I0J51000D01*
G01*
G37*
D12*
X46155000Y-13325000D03*
G36*
G01*
X53104000Y-14125000D02*
X53104000Y-12525000D01*
G75*
G02*
X53155000Y-12474000I51000J0D01*
G01*
X54755000Y-12474000D01*
G75*
G02*
X54806000Y-12525000I0J-51000D01*
G01*
X54806000Y-14125000D01*
G75*
G02*
X54755000Y-14176000I-51000J0D01*
G01*
X53155000Y-14176000D01*
G75*
G02*
X53104000Y-14125000I0J51000D01*
G01*
G37*
G36*
G01*
X12809500Y-27514500D02*
X12809500Y-25814500D01*
G75*
G02*
X12860500Y-25763500I51000J0D01*
G01*
X14560500Y-25763500D01*
G75*
G02*
X14611500Y-25814500I0J-51000D01*
G01*
X14611500Y-27514500D01*
G75*
G02*
X14560500Y-27565500I-51000J0D01*
G01*
X12860500Y-27565500D01*
G75*
G02*
X12809500Y-27514500I0J51000D01*
G01*
G37*
D13*
X13710500Y-29204500D03*
M02*
