M48
; DRILL file {KiCad (5.1.8)-1} date 12/05/20 00:36:07
; FORMAT={-:-/ absolute / inch / decimal}
; #@! TF.CreationDate,2020-12-05T00:36:07+00:00
; #@! TF.GenerationSoftware,Kicad,Pcbnew,(5.1.8)-1
; #@! TF.FileFunction,Plated,1,2,PTH
FMAT,2
INCH
T1C0.0157
T2C0.0276
T3C0.0394
T4C0.0492
%
G90
G05
T1
X0.7451Y-0.6358
X1.4045Y-0.6358
X1.4242Y-0.688
X1.5522Y-0.6024
X1.6703Y-0.6024
X1.6703Y-0.6791
X2.2228Y-1.1211
X2.2228Y-1.1742
X2.2228Y-1.2254
X2.2228Y-1.2785
X2.2235Y-1.1211
X2.2235Y-1.1742
X2.2235Y-1.2254
X2.2235Y-1.2785
X2.2237Y-0.5856
X2.2237Y-0.6388
X2.2237Y-0.69
X2.2237Y-0.7431
X2.2245Y-0.5856
X2.2245Y-0.6388
X2.2245Y-0.69
X2.2245Y-0.7431
X2.272Y-1.1211
X2.272Y-1.1742
X2.272Y-1.2254
X2.272Y-1.2785
X2.273Y-0.5856
X2.273Y-0.6388
X2.273Y-0.69
X2.273Y-0.7431
X2.3212Y-1.1211
X2.3212Y-1.1742
X2.3212Y-1.2254
X2.3212Y-1.2785
X2.3222Y-0.5856
X2.3222Y-0.6388
X2.3222Y-0.69
X2.3222Y-0.7431
X2.3704Y-1.1211
X2.3704Y-1.1742
X2.3704Y-1.2254
X2.3704Y-1.2785
X2.3714Y-0.5856
X2.3714Y-0.6388
X2.3714Y-0.69
X2.3714Y-0.7431
X2.4186Y-1.1211
X2.4186Y-1.1742
X2.4186Y-1.2254
X2.4186Y-1.2785
X2.4196Y-0.5856
X2.4196Y-0.6388
X2.4196Y-0.69
X2.4196Y-0.7431
T2
X1.8171Y-0.5246
X2.1242Y-0.5246
X1.5561Y-0.5384
X1.6703Y-0.5404
X1.3839Y-1.3376
X0.6447Y-1.3327
T3
X0.5398Y-1.0498
X0.5398Y-1.1498
T4
X0.7431Y-0.5512
X0.8711Y-0.5512
X1.1663Y-0.5512
X1.2943Y-0.5512
T0
M30
